<svg width="187" height="60" viewBox="0 0 187 60" fill="none" xmlns="http://www.w3.org/2000/svg">
<g clip-path="url(#clip0_1_1284)">
<path opacity="0.4" d="M77.988 39.648C78.06 39.76 78.092 39.88 78.084 40.008C78.084 40.192 78.052 40.352 77.988 40.488C77.972 40.528 77.948 40.58 77.916 40.644C77.892 40.708 77.864 40.776 77.832 40.848C77.808 40.92 77.78 40.988 77.748 41.052C77.716 41.116 77.692 41.164 77.676 41.196L77.652 41.256C77.54 41.504 77.432 41.744 77.328 41.976C77.224 42.208 77.108 42.456 76.98 42.72C76.852 42.976 76.728 43.228 76.608 43.476C76.496 43.716 76.384 43.952 76.272 44.184C76.24 44.248 76.212 44.312 76.188 44.376C76.164 44.432 76.132 44.492 76.092 44.556L75.516 45.792C75.412 46 75.312 46.204 75.216 46.404C75.128 46.604 75.028 46.804 74.916 47.004C74.892 47.044 74.868 47.08 74.844 47.112C74.828 47.152 74.812 47.192 74.796 47.232C74.74 47.328 74.656 47.42 74.544 47.508C74.44 47.604 74.328 47.656 74.208 47.664C73.992 47.68 73.804 47.616 73.644 47.472C73.548 47.416 73.472 47.336 73.416 47.232C73.384 47.16 73.368 47.068 73.368 46.956C73.376 46.908 73.38 46.86 73.38 46.812C73.388 46.772 73.396 46.732 73.404 46.692C73.42 46.652 73.432 46.612 73.44 46.572C73.448 46.532 73.46 46.5 73.476 46.476C73.5 46.412 73.52 46.38 73.536 46.38L74.412 44.484C74.372 44.396 74.332 44.308 74.292 44.22C74.252 44.124 74.216 44.04 74.184 43.968C74.08 43.72 73.968 43.46 73.848 43.188C73.736 42.908 73.62 42.632 73.5 42.36C73.38 42.08 73.256 41.808 73.128 41.544C73 41.28 72.872 41.028 72.744 40.788C72.696 40.708 72.652 40.624 72.612 40.536C72.572 40.44 72.54 40.348 72.516 40.26C72.492 40.164 72.484 40.068 72.492 39.972C72.5 39.876 72.536 39.78 72.6 39.684C72.664 39.564 72.748 39.48 72.852 39.432C72.956 39.376 73.064 39.352 73.176 39.36C73.296 39.36 73.408 39.384 73.512 39.432C73.616 39.48 73.7 39.544 73.764 39.624C73.9 39.768 74.008 39.928 74.088 40.104C74.168 40.28 74.244 40.46 74.316 40.644C74.468 40.964 74.624 41.3 74.784 41.652C74.944 42.004 75.104 42.348 75.264 42.684L75.888 41.364C75.952 41.236 76.008 41.112 76.056 40.992C76.112 40.872 76.168 40.756 76.224 40.644C76.288 40.508 76.348 40.368 76.404 40.224C76.468 40.08 76.54 39.948 76.62 39.828C76.636 39.796 76.652 39.768 76.668 39.744C76.684 39.72 76.7 39.692 76.716 39.66C76.788 39.564 76.852 39.488 76.908 39.432C76.948 39.4 76.98 39.376 77.004 39.36C77.036 39.336 77.072 39.32 77.112 39.312C77.168 39.296 77.22 39.288 77.268 39.288C77.324 39.28 77.376 39.28 77.424 39.288C77.504 39.312 77.6 39.348 77.712 39.396C77.832 39.444 77.924 39.528 77.988 39.648ZM79.9426 39.948C80.1826 39.828 80.4346 39.744 80.6986 39.696C80.9626 39.64 81.2226 39.628 81.4786 39.66C81.7426 39.684 81.9946 39.752 82.2346 39.864C82.4746 39.968 82.6986 40.12 82.9066 40.32C83.1146 40.528 83.2746 40.756 83.3866 41.004C83.4986 41.252 83.5786 41.528 83.6266 41.832C83.6586 42.04 83.7106 42.232 83.7826 42.408C83.8546 42.584 83.9306 42.76 84.0106 42.936C84.0986 43.112 84.1786 43.288 84.2506 43.464C84.3306 43.64 84.3946 43.824 84.4426 44.016C84.4826 44.2 84.4666 44.38 84.3946 44.556C84.3306 44.724 84.1946 44.828 83.9866 44.868C83.8666 44.892 83.7506 44.884 83.6386 44.844C83.5346 44.796 83.4386 44.732 83.3506 44.652C83.2626 44.564 83.1826 44.472 83.1106 44.376C83.0466 44.272 82.9866 44.176 82.9306 44.088C82.7466 44.328 82.5466 44.516 82.3306 44.652C82.1146 44.78 81.8546 44.864 81.5506 44.904C81.2946 44.936 81.0506 44.944 80.8186 44.928C80.5866 44.912 80.3386 44.868 80.0746 44.796C79.7306 44.708 79.4466 44.556 79.2226 44.34C79.0066 44.116 78.8386 43.86 78.7186 43.572C78.6066 43.276 78.5466 42.96 78.5386 42.624C78.5306 42.288 78.5706 41.956 78.6586 41.628C78.7706 41.196 78.9386 40.844 79.1626 40.572C79.3866 40.3 79.6466 40.092 79.9426 39.948ZM80.2426 41.352C80.1306 41.464 80.0426 41.596 79.9786 41.748C79.9146 41.9 79.8746 42.06 79.8586 42.228C79.8506 42.396 79.8666 42.564 79.9066 42.732C79.9466 42.9 80.0106 43.048 80.0986 43.176C80.1786 43.288 80.3146 43.384 80.5066 43.464C80.6986 43.536 80.8986 43.58 81.1066 43.596C81.3466 43.612 81.5546 43.548 81.7306 43.404C81.9146 43.26 82.0506 43.08 82.1386 42.864C82.2346 42.64 82.2786 42.404 82.2706 42.156C82.2626 41.9 82.1946 41.668 82.0666 41.46C81.9706 41.308 81.8426 41.196 81.6826 41.124C81.5306 41.052 81.3666 41.016 81.1906 41.016C81.0146 41.008 80.8386 41.036 80.6626 41.1C80.4946 41.156 80.3546 41.24 80.2426 41.352ZM85.4529 40.752C85.4529 40.656 85.4529 40.548 85.4529 40.428C85.4529 40.3 85.4569 40.172 85.4649 40.044C85.4729 39.908 85.4849 39.78 85.5009 39.66C85.5249 39.532 85.5569 39.42 85.5969 39.324C85.6609 39.18 85.7609 39.084 85.8969 39.036C86.0329 38.98 86.1809 38.956 86.3409 38.964C86.5089 38.964 86.6409 38.992 86.7369 39.048C86.8329 39.104 86.9049 39.18 86.9529 39.276C87.0009 39.364 87.0289 39.468 87.0369 39.588C87.0529 39.7 87.0609 39.82 87.0609 39.948C87.1329 39.82 87.2289 39.716 87.3489 39.636C87.4769 39.556 87.6049 39.492 87.7329 39.444C87.8609 39.396 87.9769 39.364 88.0809 39.348C88.1849 39.324 88.2449 39.312 88.2609 39.312C88.4609 39.296 88.6409 39.292 88.8009 39.3C88.9689 39.308 89.1529 39.344 89.3529 39.408C89.4809 39.456 89.6129 39.524 89.7489 39.612C89.8849 39.692 90.0049 39.788 90.1089 39.9C90.2129 40.012 90.2809 40.136 90.3129 40.272C90.3529 40.4 90.3369 40.536 90.2649 40.68C90.1529 40.88 90.0289 40.98 89.8929 40.98C89.7569 40.972 89.6089 40.948 89.4489 40.908C89.3609 40.892 89.2569 40.856 89.1369 40.8C89.0169 40.744 88.9129 40.708 88.8249 40.692C88.5529 40.652 88.3129 40.672 88.1049 40.752C87.8969 40.832 87.7169 40.928 87.5649 41.04C87.3889 41.176 87.2369 41.332 87.1089 41.508V43.236C87.1089 43.452 87.1049 43.676 87.0969 43.908C87.0969 44.14 87.0649 44.352 87.0009 44.544C86.9449 44.728 86.8449 44.88 86.7009 45C86.5649 45.112 86.3649 45.16 86.1009 45.144C85.9569 45.136 85.8289 45.068 85.7169 44.94C85.6049 44.804 85.5369 44.672 85.5129 44.544C85.4969 44.424 85.4849 44.28 85.4769 44.112C85.4689 43.944 85.4609 43.768 85.4529 43.584C85.4529 43.4 85.4529 43.216 85.4529 43.032C85.4529 42.84 85.4529 42.664 85.4529 42.504V40.752ZM91.9895 39.948C92.2295 39.828 92.4815 39.744 92.7455 39.696C93.0095 39.64 93.2695 39.628 93.5255 39.66C93.7895 39.684 94.0415 39.752 94.2815 39.864C94.5215 39.968 94.7455 40.12 94.9535 40.32C95.1615 40.528 95.3215 40.756 95.4335 41.004C95.5455 41.252 95.6255 41.528 95.6735 41.832C95.7055 42.04 95.7575 42.232 95.8295 42.408C95.9015 42.584 95.9775 42.76 96.0575 42.936C96.1455 43.112 96.2255 43.288 96.2975 43.464C96.3775 43.64 96.4415 43.824 96.4895 44.016C96.5295 44.2 96.5135 44.38 96.4415 44.556C96.3775 44.724 96.2415 44.828 96.0335 44.868C95.9135 44.892 95.7975 44.884 95.6855 44.844C95.5815 44.796 95.4855 44.732 95.3975 44.652C95.3095 44.564 95.2295 44.472 95.1575 44.376C95.0935 44.272 95.0335 44.176 94.9775 44.088C94.7935 44.328 94.5935 44.516 94.3775 44.652C94.1615 44.78 93.9015 44.864 93.5975 44.904C93.3415 44.936 93.0975 44.944 92.8655 44.928C92.6335 44.912 92.3855 44.868 92.1215 44.796C91.7775 44.708 91.4935 44.556 91.2695 44.34C91.0535 44.116 90.8855 43.86 90.7655 43.572C90.6535 43.276 90.5935 42.96 90.5855 42.624C90.5775 42.288 90.6175 41.956 90.7055 41.628C90.8175 41.196 90.9855 40.844 91.2095 40.572C91.4335 40.3 91.6935 40.092 91.9895 39.948ZM92.2895 41.352C92.1775 41.464 92.0895 41.596 92.0255 41.748C91.9615 41.9 91.9215 42.06 91.9055 42.228C91.8975 42.396 91.9135 42.564 91.9535 42.732C91.9935 42.9 92.0575 43.048 92.1455 43.176C92.2255 43.288 92.3615 43.384 92.5535 43.464C92.7455 43.536 92.9455 43.58 93.1535 43.596C93.3935 43.612 93.6015 43.548 93.7775 43.404C93.9615 43.26 94.0975 43.08 94.1855 42.864C94.2815 42.64 94.3255 42.404 94.3175 42.156C94.3095 41.9 94.2415 41.668 94.1135 41.46C94.0175 41.308 93.8895 41.196 93.7295 41.124C93.5775 41.052 93.4135 41.016 93.2375 41.016C93.0615 41.008 92.8855 41.036 92.7095 41.1C92.5415 41.156 92.4015 41.24 92.2895 41.352ZM101.928 44.952C102.064 44.928 102.2 44.936 102.336 44.976C102.48 45.016 102.608 45.08 102.72 45.168C102.832 45.256 102.888 45.38 102.888 45.54C102.888 45.62 102.872 45.704 102.84 45.792C102.816 45.88 102.78 45.944 102.732 45.984C102.668 46.048 102.584 46.092 102.48 46.116C102.384 46.148 102.288 46.168 102.192 46.176C102.096 46.192 102.012 46.2 101.94 46.2C101.876 46.2 101.84 46.2 101.832 46.2L99.0478 46.212C98.8638 46.22 98.6718 46.22 98.4718 46.212C98.2798 46.204 98.1158 46.144 97.9798 46.032C97.7958 45.896 97.7038 45.748 97.7038 45.588C97.7038 45.476 97.7398 45.364 97.8118 45.252C97.8918 45.148 97.9958 45.076 98.1238 45.036C98.2918 44.98 98.4638 44.956 98.6398 44.964C98.8158 44.964 98.9958 44.96 99.1798 44.952H101.928ZM106.239 42.24C106.415 42.424 106.543 42.56 106.623 42.648C106.711 42.728 106.771 42.788 106.803 42.828C106.843 42.868 106.871 42.892 106.887 42.9C106.903 42.908 106.931 42.932 106.971 42.972C107.011 43.012 107.075 43.076 107.163 43.164C107.251 43.244 107.383 43.376 107.559 43.56C107.703 43.704 107.819 43.872 107.907 44.064C108.003 44.248 107.995 44.448 107.883 44.664C107.819 44.776 107.747 44.856 107.667 44.904C107.587 44.944 107.499 44.96 107.403 44.952C107.315 44.944 107.219 44.916 107.115 44.868C107.019 44.82 106.923 44.76 106.827 44.688C106.643 44.552 106.467 44.396 106.299 44.22C106.131 44.036 105.995 43.896 105.891 43.8C105.819 43.728 105.775 43.68 105.759 43.656C105.743 43.64 105.727 43.628 105.711 43.62C105.695 43.604 105.679 43.588 105.663 43.572C105.607 43.516 105.547 43.46 105.483 43.404C105.419 43.348 105.355 43.288 105.291 43.224V43.692C105.291 43.78 105.295 43.844 105.303 43.884C105.303 43.964 105.299 44.024 105.291 44.064C105.267 44.152 105.255 44.236 105.255 44.316C105.247 44.356 105.239 44.396 105.231 44.436C105.223 44.468 105.211 44.504 105.195 44.544C105.187 44.56 105.179 44.572 105.171 44.58C105.171 44.588 105.171 44.6 105.171 44.616C105.163 44.632 105.155 44.644 105.147 44.652C105.147 44.66 105.143 44.672 105.135 44.688C105.095 44.768 105.031 44.844 104.943 44.916C104.791 45.004 104.603 45.028 104.379 44.988C104.259 44.964 104.167 44.92 104.103 44.856C104.031 44.808 103.983 44.74 103.959 44.652C103.943 44.612 103.927 44.572 103.911 44.532C103.903 44.484 103.891 44.44 103.875 44.4C103.859 44.36 103.851 44.324 103.851 44.292C103.851 44.252 103.851 44.22 103.851 44.196V37.368C103.851 37.32 103.851 37.272 103.851 37.224C103.851 37.176 103.855 37.128 103.863 37.08C103.871 37.032 103.879 36.988 103.887 36.948C103.903 36.9 103.919 36.856 103.935 36.816C103.967 36.736 104.007 36.672 104.055 36.624C104.095 36.584 104.135 36.556 104.175 36.54C104.223 36.516 104.267 36.496 104.307 36.48C104.347 36.472 104.391 36.468 104.439 36.468C104.495 36.46 104.547 36.456 104.595 36.456C104.707 36.456 104.819 36.488 104.931 36.552C105.035 36.624 105.111 36.716 105.159 36.828C105.223 36.98 105.255 37.128 105.255 37.272C105.263 37.352 105.271 37.476 105.279 37.644C105.287 37.804 105.291 37.924 105.291 38.004V38.052C105.299 38.316 105.303 38.568 105.303 38.808C105.303 39.048 105.303 39.308 105.303 39.588C105.295 39.868 105.291 40.136 105.291 40.392C105.291 40.64 105.291 40.888 105.291 41.136V41.268C105.355 41.204 105.419 41.144 105.483 41.088C105.547 41.032 105.607 40.972 105.663 40.908C105.695 40.884 105.727 40.856 105.759 40.824L105.891 40.692C105.995 40.588 106.131 40.448 106.299 40.272C106.467 40.088 106.643 39.928 106.827 39.792C107.027 39.648 107.219 39.56 107.403 39.528C107.595 39.496 107.755 39.592 107.883 39.816C107.995 40.032 108.003 40.236 107.907 40.428C107.819 40.612 107.703 40.784 107.559 40.944C107.383 41.128 107.251 41.264 107.163 41.352C107.075 41.432 107.011 41.492 106.971 41.532C106.931 41.564 106.903 41.584 106.887 41.592C106.871 41.6 106.843 41.624 106.803 41.664C106.771 41.696 106.711 41.756 106.623 41.844C106.543 41.924 106.415 42.056 106.239 42.24ZM113.617 42.636C113.625 42.796 113.629 42.964 113.629 43.14C113.629 43.308 113.625 43.464 113.617 43.608C113.609 43.824 113.597 44.024 113.581 44.208C113.565 44.384 113.533 44.536 113.485 44.664C113.437 44.784 113.361 44.876 113.257 44.94C113.161 44.996 113.025 45.012 112.849 44.988C112.665 44.964 112.533 44.876 112.453 44.724C112.373 44.572 112.317 44.4 112.285 44.208C112.261 44.008 112.253 43.808 112.261 43.608C112.269 43.408 112.269 43.252 112.261 43.14C112.253 42.964 112.245 42.764 112.237 42.54C112.237 42.308 112.213 42.092 112.165 41.892C112.125 41.684 112.053 41.508 111.949 41.364C111.845 41.22 111.689 41.144 111.481 41.136C111.217 41.12 111.013 41.14 110.869 41.196C110.733 41.252 110.633 41.336 110.569 41.448C110.505 41.552 110.465 41.68 110.449 41.832C110.441 41.984 110.425 42.148 110.401 42.324L110.389 42.792V43.668C110.389 43.812 110.385 43.964 110.377 44.124C110.377 44.276 110.353 44.416 110.305 44.544C110.257 44.672 110.181 44.78 110.077 44.868C109.981 44.956 109.837 45 109.645 45C109.405 45 109.225 44.924 109.105 44.772C108.993 44.612 108.937 44.416 108.937 44.184V37.284C108.937 37.236 108.937 37.192 108.937 37.152C108.945 37.104 108.953 37.056 108.961 37.008C108.977 36.96 108.989 36.916 108.997 36.876C109.005 36.828 109.017 36.784 109.033 36.744C109.057 36.664 109.097 36.604 109.153 36.564C109.193 36.524 109.233 36.492 109.273 36.468C109.313 36.444 109.357 36.428 109.405 36.42C109.445 36.412 109.489 36.408 109.537 36.408C109.585 36.4 109.633 36.396 109.681 36.396C109.801 36.396 109.917 36.432 110.029 36.504C110.077 36.536 110.121 36.572 110.161 36.612C110.201 36.644 110.233 36.692 110.257 36.756C110.321 36.908 110.353 37.052 110.353 37.188C110.361 37.228 110.365 37.288 110.365 37.368C110.373 37.44 110.377 37.516 110.377 37.596C110.377 37.676 110.377 37.756 110.377 37.836C110.385 37.908 110.389 37.964 110.389 38.004V38.064C110.397 38.32 110.401 38.58 110.401 38.844C110.401 39.108 110.401 39.376 110.401 39.648V39.852C110.737 39.74 111.089 39.688 111.457 39.696C111.825 39.696 112.153 39.768 112.441 39.912C112.737 40.064 112.961 40.236 113.113 40.428C113.273 40.62 113.389 40.832 113.461 41.064C113.533 41.296 113.573 41.544 113.581 41.808C113.597 42.072 113.609 42.348 113.617 42.636ZM115.989 39.948C116.229 39.828 116.481 39.744 116.745 39.696C117.009 39.64 117.269 39.628 117.525 39.66C117.789 39.684 118.041 39.752 118.281 39.864C118.521 39.968 118.745 40.12 118.953 40.32C119.161 40.528 119.321 40.756 119.433 41.004C119.545 41.252 119.625 41.528 119.673 41.832C119.705 42.04 119.757 42.232 119.829 42.408C119.901 42.584 119.977 42.76 120.057 42.936C120.145 43.112 120.225 43.288 120.297 43.464C120.377 43.64 120.441 43.824 120.489 44.016C120.529 44.2 120.513 44.38 120.441 44.556C120.377 44.724 120.241 44.828 120.033 44.868C119.913 44.892 119.797 44.884 119.685 44.844C119.581 44.796 119.485 44.732 119.397 44.652C119.309 44.564 119.229 44.472 119.157 44.376C119.093 44.272 119.033 44.176 118.977 44.088C118.793 44.328 118.593 44.516 118.377 44.652C118.161 44.78 117.901 44.864 117.597 44.904C117.341 44.936 117.097 44.944 116.865 44.928C116.633 44.912 116.385 44.868 116.121 44.796C115.777 44.708 115.493 44.556 115.269 44.34C115.053 44.116 114.885 43.86 114.765 43.572C114.653 43.276 114.593 42.96 114.585 42.624C114.577 42.288 114.617 41.956 114.705 41.628C114.817 41.196 114.985 40.844 115.209 40.572C115.433 40.3 115.693 40.092 115.989 39.948ZM116.289 41.352C116.177 41.464 116.089 41.596 116.025 41.748C115.961 41.9 115.921 42.06 115.905 42.228C115.897 42.396 115.913 42.564 115.953 42.732C115.993 42.9 116.057 43.048 116.145 43.176C116.225 43.288 116.361 43.384 116.553 43.464C116.745 43.536 116.945 43.58 117.153 43.596C117.393 43.612 117.601 43.548 117.777 43.404C117.961 43.26 118.097 43.08 118.185 42.864C118.281 42.64 118.325 42.404 118.317 42.156C118.309 41.9 118.241 41.668 118.113 41.46C118.017 41.308 117.889 41.196 117.729 41.124C117.577 41.052 117.413 41.016 117.237 41.016C117.061 41.008 116.885 41.036 116.709 41.1C116.541 41.156 116.401 41.24 116.289 41.352ZM123.084 44.04C123.076 44.08 123.068 44.12 123.06 44.16C123.06 44.192 123.06 44.228 123.06 44.268L122.988 44.52C122.972 44.552 122.96 44.572 122.952 44.58L122.916 44.652C122.876 44.74 122.804 44.812 122.7 44.868C122.508 44.964 122.304 44.988 122.088 44.94C121.952 44.924 121.844 44.884 121.764 44.82C121.684 44.764 121.628 44.696 121.596 44.616C121.564 44.536 121.54 44.456 121.524 44.376C121.5 44.296 121.488 44.224 121.488 44.16V37.44C121.488 37.384 121.488 37.336 121.488 37.296C121.496 37.248 121.504 37.204 121.512 37.164C121.52 37.108 121.528 37.06 121.536 37.02C121.552 36.98 121.568 36.936 121.584 36.888C121.608 36.808 121.652 36.744 121.716 36.696C121.812 36.624 121.904 36.584 121.992 36.576C122.048 36.56 122.1 36.552 122.148 36.552C122.196 36.544 122.252 36.54 122.316 36.54C122.428 36.54 122.556 36.572 122.7 36.636C122.812 36.7 122.892 36.788 122.94 36.9C123.02 37.06 123.06 37.208 123.06 37.344C123.068 37.424 123.072 37.544 123.072 37.704C123.08 37.864 123.084 37.984 123.084 38.064V38.112C123.1 38.368 123.108 38.616 123.108 38.856C123.108 39.088 123.104 39.344 123.096 39.624C123.096 39.896 123.092 40.16 123.084 40.416C123.084 40.664 123.084 40.912 123.084 41.16V43.68C123.084 43.712 123.084 43.744 123.084 43.776C123.092 43.8 123.096 43.828 123.096 43.86C123.096 43.94 123.092 44 123.084 44.04ZM125.578 40.452C125.578 40.676 125.578 40.928 125.578 41.208C125.586 41.488 125.59 41.78 125.59 42.084C125.59 42.38 125.59 42.676 125.59 42.972C125.59 43.26 125.586 43.528 125.578 43.776C125.57 43.896 125.558 44.028 125.542 44.172C125.526 44.308 125.494 44.436 125.446 44.556C125.398 44.676 125.322 44.776 125.218 44.856C125.122 44.928 124.99 44.96 124.822 44.952C124.574 44.936 124.394 44.828 124.282 44.628C124.178 44.428 124.118 44.148 124.102 43.788C124.102 43.604 124.098 43.392 124.09 43.152C124.09 42.912 124.086 42.668 124.078 42.42C124.078 42.172 124.078 41.932 124.078 41.7C124.078 41.46 124.078 41.244 124.078 41.052C124.078 40.94 124.074 40.804 124.066 40.644C124.066 40.484 124.07 40.32 124.078 40.152C124.086 39.984 124.106 39.824 124.138 39.672C124.17 39.512 124.222 39.38 124.294 39.276C124.35 39.212 124.43 39.164 124.534 39.132C124.638 39.092 124.746 39.072 124.858 39.072C124.978 39.072 125.09 39.092 125.194 39.132C125.306 39.172 125.386 39.228 125.434 39.3C125.466 39.348 125.49 39.416 125.506 39.504C125.522 39.592 125.534 39.692 125.542 39.804C125.558 39.908 125.566 40.02 125.566 40.14C125.574 40.252 125.578 40.356 125.578 40.452ZM125.122 38.028C124.874 38.092 124.666 38.068 124.498 37.956C124.338 37.836 124.238 37.66 124.198 37.428C124.166 37.26 124.178 37.112 124.234 36.984C124.29 36.856 124.374 36.76 124.486 36.696C124.598 36.624 124.726 36.592 124.87 36.6C125.014 36.608 125.158 36.664 125.302 36.768C125.438 36.864 125.534 36.976 125.59 37.104C125.654 37.232 125.674 37.356 125.65 37.476C125.634 37.596 125.582 37.708 125.494 37.812C125.406 37.908 125.282 37.98 125.122 38.028ZM128.346 44.04C128.338 44.08 128.33 44.12 128.322 44.16C128.322 44.192 128.322 44.228 128.322 44.268L128.25 44.52C128.234 44.552 128.222 44.572 128.214 44.58L128.178 44.652C128.138 44.74 128.066 44.812 127.962 44.868C127.77 44.964 127.566 44.988 127.35 44.94C127.214 44.924 127.106 44.884 127.026 44.82C126.946 44.764 126.89 44.696 126.858 44.616C126.826 44.536 126.802 44.456 126.786 44.376C126.762 44.296 126.75 44.224 126.75 44.16V37.44C126.75 37.384 126.75 37.336 126.75 37.296C126.758 37.248 126.766 37.204 126.774 37.164C126.782 37.108 126.79 37.06 126.798 37.02C126.814 36.98 126.83 36.936 126.846 36.888C126.87 36.808 126.914 36.744 126.978 36.696C127.074 36.624 127.166 36.584 127.254 36.576C127.31 36.56 127.362 36.552 127.41 36.552C127.458 36.544 127.514 36.54 127.578 36.54C127.69 36.54 127.818 36.572 127.962 36.636C128.074 36.7 128.154 36.788 128.202 36.9C128.282 37.06 128.322 37.208 128.322 37.344C128.33 37.424 128.334 37.544 128.334 37.704C128.342 37.864 128.346 37.984 128.346 38.064V38.112C128.362 38.368 128.37 38.616 128.37 38.856C128.37 39.088 128.366 39.344 128.358 39.624C128.358 39.896 128.354 40.16 128.346 40.416C128.346 40.664 128.346 40.912 128.346 41.16V43.68C128.346 43.712 128.346 43.744 128.346 43.776C128.354 43.8 128.358 43.828 128.358 43.86C128.358 43.94 128.354 44 128.346 44.04ZM135.976 41.46C135.976 41.556 135.984 41.66 136 41.772C136.016 41.884 136.044 41.972 136.084 42.036C136.164 42.196 136.26 42.284 136.372 42.3C136.484 42.316 136.588 42.296 136.684 42.24C136.788 42.176 136.88 42.092 136.96 41.988C137.048 41.884 137.108 41.796 137.14 41.724C137.196 41.58 137.236 41.42 137.26 41.244C137.284 41.06 137.292 40.876 137.284 40.692C137.284 40.508 137.268 40.328 137.236 40.152C137.212 39.976 137.18 39.812 137.14 39.66C137.012 39.204 136.808 38.816 136.528 38.496C136.256 38.176 135.936 37.932 135.568 37.764C135.2 37.588 134.8 37.496 134.368 37.488C133.944 37.472 133.516 37.54 133.084 37.692C132.612 37.86 132.224 38.1 131.92 38.412C131.616 38.724 131.392 39.08 131.248 39.48C131.112 39.872 131.056 40.296 131.08 40.752C131.104 41.2 131.208 41.648 131.392 42.096C131.52 42.424 131.692 42.712 131.908 42.96C132.124 43.208 132.372 43.416 132.652 43.584C132.94 43.752 133.248 43.88 133.576 43.968C133.904 44.056 134.24 44.1 134.584 44.1C134.672 44.1 134.808 44.096 134.992 44.088C135.184 44.08 135.364 44.092 135.532 44.124C135.7 44.148 135.832 44.208 135.928 44.304C136.032 44.4 136.044 44.552 135.964 44.76C135.908 44.904 135.792 45.012 135.616 45.084C135.44 45.164 135.244 45.22 135.028 45.252C134.82 45.284 134.608 45.3 134.392 45.3C134.184 45.308 134.02 45.312 133.9 45.312C133.268 45.296 132.664 45.168 132.088 44.928C131.512 44.688 131.024 44.316 130.624 43.812C130.232 43.332 129.944 42.784 129.76 42.168C129.576 41.552 129.504 40.94 129.544 40.332C129.576 40.012 129.632 39.684 129.712 39.348C129.792 39.012 129.904 38.692 130.048 38.388C130.192 38.076 130.368 37.788 130.576 37.524C130.792 37.26 131.044 37.036 131.332 36.852C131.668 36.628 132.028 36.448 132.412 36.312C132.796 36.168 133.192 36.076 133.6 36.036C134.008 35.988 134.424 35.996 134.848 36.06C135.272 36.116 135.696 36.24 136.12 36.432C136.592 36.64 136.996 36.904 137.332 37.224C137.676 37.536 137.948 37.892 138.148 38.292C138.356 38.692 138.496 39.128 138.568 39.6C138.648 40.072 138.664 40.564 138.616 41.076C138.56 41.54 138.42 41.984 138.196 42.408C137.98 42.824 137.664 43.16 137.248 43.416C137.176 43.464 137.088 43.508 136.984 43.548C136.88 43.588 136.768 43.612 136.648 43.62C136.528 43.62 136.4 43.604 136.264 43.572C136.128 43.532 135.988 43.46 135.844 43.356C135.756 43.292 135.676 43.216 135.604 43.128C135.54 43.032 135.484 42.944 135.436 42.864C135.388 42.776 135.348 42.704 135.316 42.648C135.292 42.584 135.28 42.548 135.28 42.54C135.264 42.556 135.22 42.616 135.148 42.72C135.084 42.816 135 42.904 134.896 42.984C134.832 43.032 134.748 43.072 134.644 43.104C134.54 43.128 134.432 43.148 134.32 43.164C134.208 43.172 134.096 43.176 133.984 43.176C133.872 43.176 133.776 43.168 133.696 43.152C133.32 43.072 133.016 42.94 132.784 42.756C132.552 42.564 132.372 42.348 132.244 42.108C132.116 41.868 132.04 41.608 132.016 41.328C131.992 41.048 132.004 40.768 132.052 40.488C132.116 40.12 132.252 39.804 132.46 39.54C132.668 39.268 132.908 39.068 133.18 38.94C133.452 38.812 133.736 38.768 134.032 38.808C134.328 38.84 134.6 38.976 134.848 39.216C134.84 39.192 134.836 39.156 134.836 39.108C134.836 39.06 134.84 39.008 134.848 38.952C134.864 38.896 134.88 38.844 134.896 38.796C134.912 38.74 134.928 38.7 134.944 38.676C135.016 38.588 135.108 38.532 135.22 38.508C135.34 38.476 135.452 38.476 135.556 38.508C135.668 38.532 135.764 38.584 135.844 38.664C135.932 38.736 135.976 38.832 135.976 38.952V41.46ZM134.668 41.652C134.692 41.588 134.72 41.528 134.752 41.472C134.784 41.416 134.808 41.348 134.824 41.268C134.88 40.996 134.844 40.756 134.716 40.548C134.596 40.332 134.44 40.18 134.248 40.092C134.056 40.004 133.86 39.996 133.66 40.068C133.46 40.14 133.308 40.324 133.204 40.62C133.084 40.94 133.068 41.212 133.156 41.436C133.244 41.66 133.376 41.824 133.552 41.928C133.736 42.024 133.936 42.052 134.152 42.012C134.368 41.972 134.54 41.852 134.668 41.652ZM144.89 42.732C144.89 42.988 144.882 43.264 144.866 43.56C144.858 43.856 144.846 44.132 144.83 44.388C144.83 44.628 144.818 44.868 144.794 45.108C144.778 45.316 144.746 45.54 144.698 45.78C144.65 46.028 144.582 46.256 144.494 46.464C144.382 46.736 144.23 46.968 144.038 47.16C143.846 47.36 143.598 47.504 143.294 47.592C143.038 47.656 142.798 47.696 142.574 47.712C142.35 47.736 142.11 47.732 141.854 47.7C141.686 47.676 141.506 47.628 141.314 47.556C141.122 47.492 140.942 47.408 140.774 47.304C140.606 47.2 140.458 47.076 140.33 46.932C140.202 46.796 140.114 46.64 140.066 46.464C140.01 46.248 140.006 46.06 140.054 45.9C140.11 45.74 140.194 45.624 140.306 45.552C140.418 45.48 140.55 45.468 140.702 45.516C140.854 45.564 140.998 45.688 141.134 45.888C141.23 46.032 141.37 46.148 141.554 46.236C141.738 46.324 141.934 46.376 142.142 46.392C142.35 46.408 142.55 46.38 142.742 46.308C142.942 46.244 143.098 46.128 143.21 45.96C143.29 45.84 143.346 45.668 143.378 45.444C143.418 45.22 143.442 45 143.45 44.784C143.042 44.952 142.622 45.016 142.19 44.976C141.766 44.928 141.378 44.796 141.026 44.58C140.682 44.356 140.402 44.06 140.186 43.692C139.978 43.316 139.89 42.892 139.922 42.42C139.946 42.012 140.03 41.628 140.174 41.268C140.326 40.908 140.574 40.608 140.918 40.368C141.198 40.176 141.514 40.052 141.866 39.996C142.218 39.932 142.558 39.9 142.886 39.9C143.078 39.9 143.266 39.9 143.45 39.9C143.642 39.9 143.818 39.924 143.978 39.972C144.138 40.02 144.282 40.1 144.41 40.212C144.538 40.324 144.634 40.488 144.698 40.704C144.802 41.04 144.858 41.372 144.866 41.7C144.882 42.028 144.89 42.372 144.89 42.732ZM142.574 43.728C142.654 43.728 142.73 43.72 142.802 43.704C142.882 43.688 142.958 43.668 143.03 43.644C143.166 43.596 143.266 43.532 143.33 43.452C143.402 43.372 143.45 43.284 143.474 43.188C143.498 43.084 143.506 42.972 143.498 42.852C143.498 42.732 143.498 42.608 143.498 42.48C143.498 42.376 143.494 42.26 143.486 42.132C143.486 42.004 143.478 41.884 143.462 41.772C143.446 41.652 143.422 41.548 143.39 41.46C143.358 41.372 143.31 41.316 143.246 41.292C143.134 41.26 143.006 41.24 142.862 41.232C142.718 41.216 142.574 41.216 142.43 41.232C142.286 41.24 142.146 41.268 142.01 41.316C141.882 41.356 141.774 41.412 141.686 41.484C141.566 41.588 141.474 41.716 141.41 41.868C141.346 42.02 141.306 42.18 141.29 42.348C141.282 42.516 141.294 42.68 141.326 42.84C141.366 43 141.434 43.144 141.53 43.272C141.642 43.432 141.794 43.548 141.986 43.62C142.178 43.692 142.374 43.728 142.574 43.728ZM152.367 42.204C152.383 42.46 152.391 42.704 152.391 42.936C152.391 43.16 152.383 43.4 152.367 43.656C152.367 43.752 152.367 43.86 152.367 43.98C152.367 44.1 152.359 44.216 152.343 44.328C152.327 44.44 152.299 44.544 152.259 44.64C152.219 44.736 152.159 44.812 152.079 44.868C151.983 44.932 151.875 44.976 151.755 45C151.635 45.016 151.523 45.008 151.419 44.976C151.315 44.944 151.223 44.884 151.143 44.796C151.071 44.708 151.031 44.584 151.023 44.424C150.999 44.056 150.987 43.688 150.987 43.32C150.987 43.136 150.983 42.96 150.975 42.792C150.975 42.624 150.979 42.388 150.987 42.084C150.987 41.932 150.975 41.76 150.951 41.568C150.927 41.368 150.867 41.228 150.771 41.148C150.699 41.084 150.619 41.048 150.531 41.04C150.443 41.024 150.355 41.032 150.267 41.064C150.187 41.096 150.115 41.156 150.051 41.244C149.987 41.324 149.943 41.428 149.919 41.556C149.919 41.66 149.915 41.768 149.907 41.88C149.907 41.984 149.911 42.084 149.919 42.18C149.927 42.436 149.931 42.68 149.931 42.912C149.931 43.136 149.927 43.376 149.919 43.632C149.911 43.736 149.907 43.848 149.907 43.968C149.915 44.088 149.915 44.208 149.907 44.328C149.899 44.44 149.875 44.544 149.835 44.64C149.803 44.736 149.743 44.812 149.655 44.868C149.559 44.932 149.455 44.972 149.343 44.988C149.239 44.996 149.139 44.98 149.043 44.94C148.955 44.892 148.875 44.82 148.803 44.724C148.739 44.628 148.703 44.5 148.695 44.34C148.679 44.156 148.667 43.988 148.659 43.836C148.659 43.676 148.659 43.508 148.659 43.332C148.659 43.148 148.663 42.96 148.671 42.768C148.679 42.568 148.675 42.376 148.659 42.192C148.659 42.136 148.655 42.072 148.647 42C148.647 41.92 148.643 41.84 148.635 41.76C148.635 41.68 148.627 41.604 148.611 41.532C148.603 41.452 148.587 41.388 148.563 41.34C148.499 41.228 148.383 41.156 148.215 41.124C148.055 41.092 147.919 41.104 147.807 41.16C147.695 41.216 147.611 41.288 147.555 41.376C147.499 41.464 147.459 41.56 147.435 41.664C147.411 41.768 147.399 41.88 147.399 42C147.399 42.112 147.399 42.22 147.399 42.324C147.399 42.844 147.399 43.296 147.399 43.68C147.407 44.056 147.367 44.36 147.279 44.592C147.239 44.712 147.155 44.804 147.027 44.868C146.907 44.932 146.775 44.964 146.631 44.964C146.495 44.964 146.367 44.932 146.247 44.868C146.127 44.804 146.047 44.704 146.007 44.568C145.983 44.48 145.959 44.356 145.935 44.196C145.919 44.028 145.907 43.844 145.899 43.644C145.891 43.444 145.887 43.244 145.887 43.044C145.887 42.836 145.887 42.648 145.887 42.48V40.752C145.879 40.568 145.875 40.368 145.875 40.152C145.875 39.936 145.907 39.74 145.971 39.564C146.027 39.412 146.115 39.316 146.235 39.276C146.355 39.228 146.479 39.208 146.607 39.216C146.751 39.216 146.863 39.256 146.943 39.336C147.031 39.408 147.095 39.5 147.135 39.612C147.175 39.716 147.199 39.836 147.207 39.972C147.215 40.1 147.223 40.224 147.231 40.344C147.319 40.144 147.423 39.98 147.543 39.852C147.671 39.716 147.851 39.628 148.083 39.588C148.675 39.476 149.147 39.628 149.499 40.044C149.659 39.884 149.863 39.752 150.111 39.648C150.303 39.576 150.499 39.544 150.699 39.552C150.899 39.552 151.087 39.588 151.263 39.66C151.447 39.732 151.611 39.836 151.755 39.972C151.907 40.108 152.027 40.272 152.115 40.464C152.235 40.72 152.303 41.004 152.319 41.316C152.335 41.628 152.351 41.924 152.367 42.204ZM154.755 39.948C154.995 39.828 155.247 39.744 155.511 39.696C155.775 39.64 156.035 39.628 156.291 39.66C156.555 39.684 156.807 39.752 157.047 39.864C157.287 39.968 157.511 40.12 157.719 40.32C157.927 40.528 158.087 40.756 158.199 41.004C158.311 41.252 158.391 41.528 158.439 41.832C158.471 42.04 158.523 42.232 158.595 42.408C158.667 42.584 158.743 42.76 158.823 42.936C158.911 43.112 158.991 43.288 159.063 43.464C159.143 43.64 159.207 43.824 159.255 44.016C159.295 44.2 159.279 44.38 159.207 44.556C159.143 44.724 159.007 44.828 158.799 44.868C158.679 44.892 158.563 44.884 158.451 44.844C158.347 44.796 158.251 44.732 158.163 44.652C158.075 44.564 157.995 44.472 157.923 44.376C157.859 44.272 157.799 44.176 157.743 44.088C157.559 44.328 157.359 44.516 157.143 44.652C156.927 44.78 156.667 44.864 156.363 44.904C156.107 44.936 155.863 44.944 155.631 44.928C155.399 44.912 155.151 44.868 154.887 44.796C154.543 44.708 154.259 44.556 154.035 44.34C153.819 44.116 153.651 43.86 153.531 43.572C153.419 43.276 153.359 42.96 153.351 42.624C153.343 42.288 153.383 41.956 153.471 41.628C153.583 41.196 153.751 40.844 153.975 40.572C154.199 40.3 154.459 40.092 154.755 39.948ZM155.055 41.352C154.943 41.464 154.855 41.596 154.791 41.748C154.727 41.9 154.687 42.06 154.671 42.228C154.663 42.396 154.679 42.564 154.719 42.732C154.759 42.9 154.823 43.048 154.911 43.176C154.991 43.288 155.127 43.384 155.319 43.464C155.511 43.536 155.711 43.58 155.919 43.596C156.159 43.612 156.367 43.548 156.543 43.404C156.727 43.26 156.863 43.08 156.951 42.864C157.047 42.64 157.091 42.404 157.083 42.156C157.075 41.9 157.007 41.668 156.879 41.46C156.783 41.308 156.655 41.196 156.495 41.124C156.343 41.052 156.179 41.016 156.003 41.016C155.827 41.008 155.651 41.036 155.475 41.1C155.307 41.156 155.167 41.24 155.055 41.352ZM161.765 40.452C161.765 40.676 161.765 40.928 161.765 41.208C161.773 41.488 161.777 41.78 161.777 42.084C161.777 42.38 161.777 42.676 161.777 42.972C161.777 43.26 161.773 43.528 161.765 43.776C161.757 43.896 161.745 44.028 161.729 44.172C161.713 44.308 161.681 44.436 161.633 44.556C161.585 44.676 161.509 44.776 161.405 44.856C161.309 44.928 161.177 44.96 161.009 44.952C160.761 44.936 160.581 44.828 160.469 44.628C160.365 44.428 160.305 44.148 160.289 43.788C160.289 43.604 160.285 43.392 160.277 43.152C160.277 42.912 160.273 42.668 160.265 42.42C160.265 42.172 160.265 41.932 160.265 41.7C160.265 41.46 160.265 41.244 160.265 41.052C160.265 40.94 160.261 40.804 160.253 40.644C160.253 40.484 160.257 40.32 160.265 40.152C160.273 39.984 160.293 39.824 160.325 39.672C160.357 39.512 160.409 39.38 160.481 39.276C160.537 39.212 160.617 39.164 160.721 39.132C160.825 39.092 160.933 39.072 161.045 39.072C161.165 39.072 161.277 39.092 161.381 39.132C161.493 39.172 161.573 39.228 161.621 39.3C161.653 39.348 161.677 39.416 161.693 39.504C161.709 39.592 161.721 39.692 161.729 39.804C161.745 39.908 161.753 40.02 161.753 40.14C161.761 40.252 161.765 40.356 161.765 40.452ZM161.309 38.028C161.061 38.092 160.853 38.068 160.685 37.956C160.525 37.836 160.425 37.66 160.385 37.428C160.353 37.26 160.365 37.112 160.421 36.984C160.477 36.856 160.561 36.76 160.673 36.696C160.785 36.624 160.913 36.592 161.057 36.6C161.201 36.608 161.345 36.664 161.489 36.768C161.625 36.864 161.721 36.976 161.777 37.104C161.841 37.232 161.861 37.356 161.837 37.476C161.821 37.596 161.769 37.708 161.681 37.812C161.593 37.908 161.469 37.98 161.309 38.028ZM164.533 44.04C164.525 44.08 164.517 44.12 164.509 44.16C164.509 44.192 164.509 44.228 164.509 44.268L164.437 44.52C164.421 44.552 164.409 44.572 164.401 44.58L164.365 44.652C164.325 44.74 164.253 44.812 164.149 44.868C163.957 44.964 163.753 44.988 163.537 44.94C163.401 44.924 163.293 44.884 163.213 44.82C163.133 44.764 163.077 44.696 163.045 44.616C163.013 44.536 162.989 44.456 162.973 44.376C162.949 44.296 162.937 44.224 162.937 44.16V37.44C162.937 37.384 162.937 37.336 162.937 37.296C162.945 37.248 162.953 37.204 162.961 37.164C162.969 37.108 162.977 37.06 162.985 37.02C163.001 36.98 163.017 36.936 163.033 36.888C163.057 36.808 163.101 36.744 163.165 36.696C163.261 36.624 163.353 36.584 163.441 36.576C163.497 36.56 163.549 36.552 163.597 36.552C163.645 36.544 163.701 36.54 163.765 36.54C163.877 36.54 164.005 36.572 164.149 36.636C164.261 36.7 164.341 36.788 164.389 36.9C164.469 37.06 164.509 37.208 164.509 37.344C164.517 37.424 164.521 37.544 164.521 37.704C164.529 37.864 164.533 37.984 164.533 38.064V38.112C164.549 38.368 164.557 38.616 164.557 38.856C164.557 39.088 164.553 39.344 164.545 39.624C164.545 39.896 164.541 40.16 164.533 40.416C164.533 40.664 164.533 40.912 164.533 41.16V43.68C164.533 43.712 164.533 43.744 164.533 43.776C164.541 43.8 164.545 43.828 164.545 43.86C164.545 43.94 164.541 44 164.533 44.04ZM166.991 45C166.991 45.208 166.915 45.384 166.763 45.528C166.619 45.68 166.443 45.756 166.235 45.756C166.027 45.756 165.847 45.68 165.695 45.528C165.551 45.384 165.479 45.208 165.479 45C165.479 44.792 165.551 44.612 165.695 44.46C165.847 44.308 166.027 44.232 166.235 44.232C166.443 44.232 166.619 44.308 166.763 44.46C166.915 44.612 166.991 44.792 166.991 45ZM172.382 40.38C172.446 40.492 172.478 40.612 172.478 40.74C172.486 40.868 172.458 40.988 172.394 41.1C172.322 41.244 172.218 41.344 172.082 41.4C171.954 41.448 171.81 41.452 171.65 41.412C171.578 41.396 171.514 41.368 171.458 41.328C171.402 41.288 171.342 41.248 171.278 41.208C171.222 41.16 171.154 41.116 171.074 41.076C171.002 41.036 170.906 41.008 170.786 40.992C170.666 40.976 170.534 40.976 170.39 40.992C170.254 41.008 170.13 41.04 170.018 41.088C169.842 41.176 169.702 41.312 169.598 41.496C169.494 41.672 169.426 41.864 169.394 42.072C169.362 42.272 169.366 42.476 169.406 42.684C169.454 42.892 169.542 43.068 169.67 43.212C169.766 43.324 169.89 43.416 170.042 43.488C170.202 43.56 170.354 43.604 170.498 43.62C170.634 43.636 170.77 43.636 170.906 43.62C171.042 43.596 171.174 43.564 171.302 43.524C171.398 43.484 171.506 43.432 171.626 43.368C171.746 43.296 171.862 43.252 171.974 43.236C172.118 43.236 172.23 43.276 172.31 43.356C172.39 43.428 172.446 43.52 172.478 43.632C172.51 43.736 172.514 43.848 172.49 43.968C172.474 44.088 172.43 44.192 172.358 44.28C172.262 44.4 172.126 44.516 171.95 44.628C171.774 44.732 171.606 44.808 171.446 44.856C171.254 44.92 171.038 44.956 170.798 44.964C170.566 44.972 170.346 44.964 170.138 44.94C170.042 44.924 169.942 44.904 169.838 44.88C169.734 44.856 169.634 44.828 169.538 44.796C169.186 44.668 168.89 44.488 168.65 44.256C168.418 44.016 168.238 43.748 168.11 43.452C167.99 43.156 167.922 42.84 167.906 42.504C167.89 42.168 167.93 41.836 168.026 41.508C168.114 41.196 168.222 40.932 168.35 40.716C168.486 40.5 168.642 40.324 168.818 40.188C169.002 40.044 169.206 39.932 169.43 39.852C169.654 39.764 169.902 39.688 170.174 39.624C170.454 39.568 170.75 39.568 171.062 39.624C171.374 39.68 171.654 39.784 171.902 39.936C172.094 40.04 172.254 40.188 172.382 40.38ZM175.008 39.576C175.272 39.448 175.548 39.356 175.836 39.3C176.124 39.244 176.408 39.232 176.688 39.264C176.976 39.296 177.252 39.372 177.516 39.492C177.788 39.612 178.036 39.78 178.26 39.996C178.444 40.18 178.604 40.404 178.74 40.668C178.876 40.924 178.976 41.176 179.04 41.424C179.176 41.864 179.196 42.308 179.1 42.756C179.004 43.204 178.84 43.62 178.608 44.004C178.496 44.18 178.356 44.34 178.188 44.484C178.028 44.62 177.856 44.732 177.672 44.82C177.432 44.932 177.172 45.008 176.892 45.048C176.612 45.096 176.34 45.108 176.076 45.084C175.596 45.06 175.172 44.94 174.804 44.724C174.444 44.508 174.152 44.232 173.928 43.896C173.712 43.56 173.568 43.18 173.496 42.756C173.432 42.324 173.46 41.884 173.58 41.436C173.708 40.956 173.892 40.568 174.132 40.272C174.38 39.968 174.672 39.736 175.008 39.576ZM175.368 41.184C175.248 41.296 175.156 41.436 175.092 41.604C175.028 41.772 174.988 41.948 174.972 42.132C174.956 42.308 174.968 42.488 175.008 42.672C175.056 42.848 175.128 43.008 175.224 43.152C175.304 43.272 175.448 43.372 175.656 43.452C175.864 43.532 176.08 43.58 176.304 43.596C176.56 43.612 176.784 43.544 176.976 43.392C177.168 43.232 177.312 43.036 177.408 42.804C177.512 42.572 177.56 42.32 177.552 42.048C177.544 41.776 177.472 41.528 177.336 41.304C177.24 41.144 177.104 41.028 176.928 40.956C176.76 40.876 176.58 40.836 176.388 40.836C176.204 40.828 176.02 40.856 175.836 40.92C175.652 40.976 175.496 41.064 175.368 41.184ZM186.621 42.204C186.637 42.46 186.645 42.704 186.645 42.936C186.645 43.16 186.637 43.4 186.621 43.656C186.621 43.752 186.621 43.86 186.621 43.98C186.621 44.1 186.613 44.216 186.597 44.328C186.581 44.44 186.553 44.544 186.513 44.64C186.473 44.736 186.413 44.812 186.333 44.868C186.237 44.932 186.129 44.976 186.009 45C185.889 45.016 185.777 45.008 185.673 44.976C185.569 44.944 185.477 44.884 185.397 44.796C185.325 44.708 185.285 44.584 185.277 44.424C185.253 44.056 185.241 43.688 185.241 43.32C185.241 43.136 185.237 42.96 185.229 42.792C185.229 42.624 185.233 42.388 185.241 42.084C185.241 41.932 185.229 41.76 185.205 41.568C185.181 41.368 185.121 41.228 185.025 41.148C184.953 41.084 184.873 41.048 184.785 41.04C184.697 41.024 184.609 41.032 184.521 41.064C184.441 41.096 184.369 41.156 184.305 41.244C184.241 41.324 184.197 41.428 184.173 41.556C184.173 41.66 184.169 41.768 184.161 41.88C184.161 41.984 184.165 42.084 184.173 42.18C184.181 42.436 184.185 42.68 184.185 42.912C184.185 43.136 184.181 43.376 184.173 43.632C184.165 43.736 184.161 43.848 184.161 43.968C184.169 44.088 184.169 44.208 184.161 44.328C184.153 44.44 184.129 44.544 184.089 44.64C184.057 44.736 183.997 44.812 183.909 44.868C183.813 44.932 183.709 44.972 183.597 44.988C183.493 44.996 183.393 44.98 183.297 44.94C183.209 44.892 183.129 44.82 183.057 44.724C182.993 44.628 182.957 44.5 182.949 44.34C182.933 44.156 182.921 43.988 182.913 43.836C182.913 43.676 182.913 43.508 182.913 43.332C182.913 43.148 182.917 42.96 182.925 42.768C182.933 42.568 182.929 42.376 182.913 42.192C182.913 42.136 182.909 42.072 182.901 42C182.901 41.92 182.897 41.84 182.889 41.76C182.889 41.68 182.881 41.604 182.865 41.532C182.857 41.452 182.841 41.388 182.817 41.34C182.753 41.228 182.637 41.156 182.469 41.124C182.309 41.092 182.173 41.104 182.061 41.16C181.949 41.216 181.865 41.288 181.809 41.376C181.753 41.464 181.713 41.56 181.689 41.664C181.665 41.768 181.653 41.88 181.653 42C181.653 42.112 181.653 42.22 181.653 42.324C181.653 42.844 181.653 43.296 181.653 43.68C181.661 44.056 181.621 44.36 181.533 44.592C181.493 44.712 181.409 44.804 181.281 44.868C181.161 44.932 181.029 44.964 180.885 44.964C180.749 44.964 180.621 44.932 180.501 44.868C180.381 44.804 180.301 44.704 180.261 44.568C180.237 44.48 180.213 44.356 180.189 44.196C180.173 44.028 180.161 43.844 180.153 43.644C180.145 43.444 180.141 43.244 180.141 43.044C180.141 42.836 180.141 42.648 180.141 42.48V40.752C180.133 40.568 180.129 40.368 180.129 40.152C180.129 39.936 180.161 39.74 180.225 39.564C180.281 39.412 180.369 39.316 180.489 39.276C180.609 39.228 180.733 39.208 180.861 39.216C181.005 39.216 181.117 39.256 181.197 39.336C181.285 39.408 181.349 39.5 181.389 39.612C181.429 39.716 181.453 39.836 181.461 39.972C181.469 40.1 181.477 40.224 181.485 40.344C181.573 40.144 181.677 39.98 181.797 39.852C181.925 39.716 182.105 39.628 182.337 39.588C182.929 39.476 183.401 39.628 183.753 40.044C183.913 39.884 184.117 39.752 184.365 39.648C184.557 39.576 184.753 39.544 184.953 39.552C185.153 39.552 185.341 39.588 185.517 39.66C185.701 39.732 185.865 39.836 186.009 39.972C186.161 40.108 186.281 40.272 186.369 40.464C186.489 40.72 186.557 41.004 186.573 41.316C186.589 41.628 186.605 41.924 186.621 42.204Z" fill="#1A1A1A"/>
<path d="M80.092 15.69C80.1013 15.7367 80.1013 15.7833 80.092 15.83C80.092 15.8767 80.078 15.928 80.05 15.984C80.0127 16.1147 79.9707 16.2313 79.924 16.334C79.868 16.4647 79.798 16.5767 79.714 16.67C79.6767 16.726 79.6393 16.782 79.602 16.838C79.574 16.8847 79.546 16.9313 79.518 16.978L79.336 17.216L77.544 19.806L77.222 20.212V23.936C77.2033 23.9827 77.194 24.0293 77.194 24.076C77.194 24.1227 77.1893 24.174 77.18 24.23C77.1613 24.2767 77.1473 24.3233 77.138 24.37C77.1287 24.4073 77.1147 24.4493 77.096 24.496C77.0773 24.5333 77.068 24.5613 77.068 24.58C77.0587 24.5987 77.0493 24.6127 77.04 24.622C77.04 24.6313 77.0353 24.6453 77.026 24.664C76.97 24.7573 76.8907 24.8413 76.788 24.916C76.5827 25.0187 76.3493 25.042 76.088 24.986C75.9387 24.9673 75.8267 24.9207 75.752 24.846C75.7053 24.818 75.668 24.7853 75.64 24.748C75.612 24.7107 75.584 24.6687 75.556 24.622C75.5373 24.566 75.5187 24.5147 75.5 24.468C75.4813 24.4213 75.4673 24.3747 75.458 24.328C75.4393 24.2813 75.43 24.2393 75.43 24.202C75.43 24.1553 75.43 24.1133 75.43 24.076V20.254L75.122 19.778L73.302 17.202L73.148 16.95C73.092 16.866 73.022 16.768 72.938 16.656C72.8633 16.5533 72.798 16.4413 72.742 16.32C72.7047 16.264 72.672 16.208 72.644 16.152C72.6253 16.0867 72.6067 16.0213 72.588 15.956C72.56 15.8627 72.5553 15.7693 72.574 15.676C72.602 15.5547 72.658 15.452 72.742 15.368C72.8353 15.284 72.9333 15.2187 73.036 15.172C73.1667 15.0787 73.316 15.0413 73.484 15.06C73.5867 15.06 73.6753 15.0787 73.75 15.116C73.8247 15.1533 73.8993 15.1953 73.974 15.242C74.058 15.3073 74.1373 15.3773 74.212 15.452C74.296 15.5267 74.3707 15.606 74.436 15.69C74.5107 15.7833 74.5807 15.872 74.646 15.956C74.7113 16.0307 74.7767 16.1193 74.842 16.222L74.884 16.278C75.108 16.5767 75.318 16.866 75.514 17.146C75.71 17.4167 75.9153 17.7107 76.13 18.028C76.1487 18.0467 76.1767 18.084 76.214 18.14C76.2513 18.196 76.2933 18.2613 76.34 18.336C76.3773 18.2707 76.41 18.2147 76.438 18.168C76.4753 18.112 76.5033 18.0747 76.522 18.056C76.7367 17.7387 76.942 17.44 77.138 17.16C77.334 16.88 77.544 16.5907 77.768 16.292L77.796 16.236C77.8707 16.152 77.936 16.068 77.992 15.984C78.0573 15.8907 78.1273 15.7973 78.202 15.704C78.3233 15.536 78.4867 15.3913 78.692 15.27C78.8413 15.1673 78.9953 15.102 79.154 15.074C79.3313 15.0553 79.4853 15.0927 79.616 15.186C79.672 15.2233 79.7233 15.256 79.77 15.284C79.826 15.312 79.8727 15.3447 79.91 15.382C79.9847 15.466 80.0453 15.5687 80.092 15.69ZM81.5261 19.106C81.8061 18.966 82.1001 18.868 82.4081 18.812C82.7161 18.7467 83.0195 18.7327 83.3181 18.77C83.6261 18.798 83.9201 18.8773 84.2001 19.008C84.4801 19.1293 84.7415 19.3067 84.9841 19.54C85.2268 19.7827 85.4135 20.0487 85.5441 20.338C85.6748 20.6273 85.7681 20.9493 85.8241 21.304C85.8615 21.5467 85.9221 21.7707 86.0061 21.976C86.0901 22.1813 86.1788 22.3867 86.2721 22.592C86.3748 22.7973 86.4681 23.0027 86.5521 23.208C86.6455 23.4133 86.7201 23.628 86.7761 23.852C86.8228 24.0667 86.8041 24.2767 86.7201 24.482C86.6455 24.678 86.4868 24.7993 86.2441 24.846C86.1041 24.874 85.9688 24.8647 85.8381 24.818C85.7168 24.762 85.6048 24.6873 85.5021 24.594C85.3995 24.4913 85.3061 24.384 85.2221 24.272C85.1475 24.1507 85.0775 24.0387 85.0121 23.936C84.7975 24.216 84.5641 24.4353 84.3121 24.594C84.0601 24.7433 83.7568 24.8413 83.4021 24.888C83.1035 24.9253 82.8188 24.9347 82.5481 24.916C82.2775 24.8973 81.9881 24.846 81.6801 24.762C81.2788 24.6593 80.9475 24.482 80.6861 24.23C80.4341 23.9687 80.2381 23.67 80.0981 23.334C79.9675 22.9887 79.8975 22.62 79.8881 22.228C79.8788 21.836 79.9255 21.4487 80.0281 21.066C80.1588 20.562 80.3548 20.1513 80.6161 19.834C80.8775 19.5167 81.1808 19.274 81.5261 19.106ZM81.8761 20.744C81.7455 20.8747 81.6428 21.0287 81.5681 21.206C81.4935 21.3833 81.4468 21.57 81.4281 21.766C81.4188 21.962 81.4375 22.158 81.4841 22.354C81.5308 22.55 81.6055 22.7227 81.7081 22.872C81.8015 23.0027 81.9601 23.1147 82.1841 23.208C82.4081 23.292 82.6415 23.3433 82.8841 23.362C83.1641 23.3807 83.4068 23.306 83.6121 23.138C83.8268 22.97 83.9855 22.76 84.0881 22.508C84.2001 22.2467 84.2515 21.9713 84.2421 21.682C84.2328 21.3833 84.1535 21.1127 84.0041 20.87C83.8921 20.6927 83.7428 20.562 83.5561 20.478C83.3788 20.394 83.1875 20.352 82.9821 20.352C82.7768 20.3427 82.5715 20.3753 82.3661 20.45C82.1701 20.5153 82.0068 20.6133 81.8761 20.744ZM87.9549 20.044C87.9549 19.932 87.9549 19.806 87.9549 19.666C87.9549 19.5167 87.9595 19.3673 87.9689 19.218C87.9782 19.0593 87.9922 18.91 88.0109 18.77C88.0389 18.6207 88.0762 18.49 88.1229 18.378C88.1975 18.21 88.3142 18.098 88.4729 18.042C88.6315 17.9767 88.8042 17.9487 88.9909 17.958C89.1869 17.958 89.3409 17.9907 89.4529 18.056C89.5649 18.1213 89.6489 18.21 89.7049 18.322C89.7609 18.4247 89.7935 18.546 89.8029 18.686C89.8215 18.8167 89.8309 18.9567 89.8309 19.106C89.9149 18.9567 90.0269 18.8353 90.1669 18.742C90.3162 18.6487 90.4655 18.574 90.6149 18.518C90.7642 18.462 90.8995 18.4247 91.0209 18.406C91.1422 18.378 91.2122 18.364 91.2309 18.364C91.4642 18.3453 91.6742 18.3407 91.8609 18.35C92.0569 18.3593 92.2715 18.4013 92.5049 18.476C92.6542 18.532 92.8082 18.6113 92.9669 18.714C93.1255 18.8073 93.2655 18.9193 93.3869 19.05C93.5082 19.1807 93.5875 19.3253 93.6249 19.484C93.6715 19.6333 93.6529 19.792 93.5689 19.96C93.4382 20.1933 93.2935 20.31 93.1349 20.31C92.9762 20.3007 92.8035 20.2727 92.6169 20.226C92.5142 20.2073 92.3929 20.1653 92.2529 20.1C92.1129 20.0347 91.9915 19.9927 91.8889 19.974C91.5715 19.9273 91.2915 19.9507 91.0489 20.044C90.8062 20.1373 90.5962 20.2493 90.4189 20.38C90.2135 20.5387 90.0362 20.7207 89.8869 20.926V22.942C89.8869 23.194 89.8822 23.4553 89.8729 23.726C89.8729 23.9967 89.8355 24.244 89.7609 24.468C89.6955 24.6827 89.5789 24.86 89.4109 25C89.2522 25.1307 89.0189 25.1867 88.7109 25.168C88.5429 25.1587 88.3935 25.0793 88.2629 24.93C88.1322 24.7713 88.0529 24.6173 88.0249 24.468C88.0062 24.328 87.9922 24.16 87.9829 23.964C87.9735 23.768 87.9642 23.5627 87.9549 23.348C87.9549 23.1333 87.9549 22.9187 87.9549 22.704C87.9549 22.48 87.9549 22.2747 87.9549 22.088V20.044ZM95.5808 19.106C95.8608 18.966 96.1548 18.868 96.4628 18.812C96.7708 18.7467 97.0741 18.7327 97.3728 18.77C97.6808 18.798 97.9748 18.8773 98.2548 19.008C98.5348 19.1293 98.7961 19.3067 99.0388 19.54C99.2815 19.7827 99.4681 20.0487 99.5988 20.338C99.7295 20.6273 99.8228 20.9493 99.8788 21.304C99.9161 21.5467 99.9768 21.7707 100.061 21.976C100.145 22.1813 100.233 22.3867 100.327 22.592C100.429 22.7973 100.523 23.0027 100.607 23.208C100.7 23.4133 100.775 23.628 100.831 23.852C100.877 24.0667 100.859 24.2767 100.775 24.482C100.7 24.678 100.541 24.7993 100.299 24.846C100.159 24.874 100.023 24.8647 99.8928 24.818C99.7715 24.762 99.6595 24.6873 99.5568 24.594C99.4541 24.4913 99.3608 24.384 99.2768 24.272C99.2021 24.1507 99.1321 24.0387 99.0668 23.936C98.8521 24.216 98.6188 24.4353 98.3668 24.594C98.1148 24.7433 97.8115 24.8413 97.4568 24.888C97.1581 24.9253 96.8735 24.9347 96.6028 24.916C96.3321 24.8973 96.0428 24.846 95.7348 24.762C95.3335 24.6593 95.0021 24.482 94.7408 24.23C94.4888 23.9687 94.2928 23.67 94.1528 23.334C94.0221 22.9887 93.9521 22.62 93.9428 22.228C93.9335 21.836 93.9801 21.4487 94.0828 21.066C94.2135 20.562 94.4095 20.1513 94.6708 19.834C94.9321 19.5167 95.2355 19.274 95.5808 19.106ZM95.9308 20.744C95.8001 20.8747 95.6975 21.0287 95.6228 21.206C95.5481 21.3833 95.5015 21.57 95.4828 21.766C95.4735 21.962 95.4921 22.158 95.5388 22.354C95.5855 22.55 95.6601 22.7227 95.7628 22.872C95.8561 23.0027 96.0148 23.1147 96.2388 23.208C96.4628 23.292 96.6961 23.3433 96.9388 23.362C97.2188 23.3807 97.4615 23.306 97.6668 23.138C97.8815 22.97 98.0401 22.76 98.1428 22.508C98.2548 22.2467 98.3061 21.9713 98.2968 21.682C98.2875 21.3833 98.2081 21.1127 98.0588 20.87C97.9468 20.6927 97.7975 20.562 97.6108 20.478C97.4335 20.394 97.2421 20.352 97.0368 20.352C96.8315 20.3427 96.6261 20.3753 96.4208 20.45C96.2248 20.5153 96.0615 20.6133 95.9308 20.744ZM112.408 23.992C112.483 24.132 112.488 24.272 112.422 24.412C112.376 24.5613 112.296 24.6733 112.184 24.748C112.128 24.7947 112.077 24.8367 112.03 24.874C111.984 24.902 111.932 24.9253 111.876 24.944C111.774 25 111.652 25.0187 111.512 25C111.456 25 111.405 24.9907 111.358 24.972C111.312 24.9533 111.265 24.93 111.218 24.902C111.172 24.874 111.12 24.846 111.064 24.818C111.018 24.7807 110.971 24.7433 110.924 24.706C110.868 24.6593 110.817 24.6173 110.77 24.58C110.724 24.5427 110.682 24.5007 110.644 24.454C110.598 24.4073 110.556 24.3607 110.518 24.314C110.481 24.2673 110.444 24.2253 110.406 24.188L110.238 24.006L107.55 21.192L107.592 24.006V24.132C107.592 24.1693 107.588 24.2113 107.578 24.258C107.569 24.2953 107.56 24.3373 107.55 24.384C107.522 24.5053 107.49 24.6127 107.452 24.706C107.434 24.762 107.406 24.8087 107.368 24.846C107.34 24.8833 107.308 24.9207 107.27 24.958C107.168 25.0513 107.046 25.1027 106.906 25.112C106.766 25.1587 106.636 25.1727 106.514 25.154C106.402 25.1447 106.286 25.112 106.164 25.056C106.071 25 105.987 24.9067 105.912 24.776C105.894 24.7387 105.88 24.7153 105.87 24.706C105.87 24.6967 105.861 24.664 105.842 24.608C105.786 24.5147 105.758 24.4213 105.758 24.328C105.749 24.272 105.74 24.2207 105.73 24.174C105.73 24.1273 105.726 24.076 105.716 24.02C105.707 23.9827 105.702 23.9453 105.702 23.908C105.702 23.8707 105.702 23.8333 105.702 23.796C105.712 23.7493 105.716 23.712 105.716 23.684C105.716 23.6467 105.716 23.6047 105.716 23.558L105.702 22.452L105.688 20.394C105.688 19.7967 105.674 19.1527 105.646 18.462C105.637 18.126 105.632 17.8273 105.632 17.566C105.632 17.3047 105.637 17.0107 105.646 16.684V16.628C105.665 16.5253 105.674 16.4273 105.674 16.334C105.674 16.2313 105.679 16.1333 105.688 16.04C105.688 15.8533 105.73 15.6667 105.814 15.48C105.87 15.34 105.968 15.228 106.108 15.144C106.183 15.0973 106.253 15.0693 106.318 15.06C106.393 15.0413 106.472 15.0227 106.556 15.004C106.622 15.004 106.682 15.0087 106.738 15.018C106.804 15.0273 106.864 15.0367 106.92 15.046C107.042 15.0647 107.154 15.116 107.256 15.2C107.284 15.228 107.308 15.2607 107.326 15.298C107.354 15.3353 107.378 15.382 107.396 15.438C107.443 15.5127 107.476 15.62 107.494 15.76C107.504 15.816 107.508 15.872 107.508 15.928C107.518 15.984 107.522 16.0447 107.522 16.11V16.684L107.536 18.392C107.686 18.2613 107.83 18.126 107.97 17.986C108.12 17.846 108.264 17.6967 108.404 17.538C108.656 17.2767 108.904 17.0247 109.146 16.782C109.398 16.53 109.65 16.2827 109.902 16.04L109.944 15.998C110.019 15.9233 110.094 15.8533 110.168 15.788C110.252 15.7133 110.332 15.6433 110.406 15.578C110.546 15.4193 110.719 15.3073 110.924 15.242C111.055 15.158 111.209 15.1253 111.386 15.144C111.47 15.1533 111.545 15.172 111.61 15.2C111.685 15.228 111.755 15.2653 111.82 15.312C111.867 15.3587 111.914 15.4007 111.96 15.438C112.007 15.466 112.044 15.5033 112.072 15.55C112.147 15.6153 112.194 15.7133 112.212 15.844C112.212 15.9467 112.194 16.04 112.156 16.124C112.128 16.1707 112.1 16.2173 112.072 16.264C112.044 16.3107 112.012 16.3573 111.974 16.404C111.928 16.46 111.886 16.5113 111.848 16.558C111.811 16.6047 111.769 16.6513 111.722 16.698C111.685 16.7447 111.643 16.7867 111.596 16.824C111.559 16.8613 111.522 16.9033 111.484 16.95L111.302 17.132L108.684 19.806C108.824 19.946 108.969 20.0953 109.118 20.254C109.277 20.4033 109.426 20.5527 109.566 20.702C109.706 20.842 109.837 20.9773 109.958 21.108C110.08 21.2293 110.182 21.332 110.266 21.416C110.518 21.6773 110.761 21.9387 110.994 22.2C111.228 22.452 111.456 22.7087 111.68 22.97L111.722 23.012C111.797 23.0867 111.867 23.166 111.932 23.25C111.998 23.3247 112.058 23.3993 112.114 23.474C112.254 23.6327 112.352 23.8053 112.408 23.992ZM119.063 22.242C119.072 22.4287 119.077 22.6247 119.077 22.83C119.077 23.026 119.072 23.208 119.063 23.376C119.054 23.628 119.04 23.8613 119.021 24.076C119.002 24.2813 118.965 24.4587 118.909 24.608C118.853 24.748 118.764 24.8553 118.643 24.93C118.531 24.9953 118.372 25.014 118.167 24.986C117.952 24.958 117.798 24.8553 117.705 24.678C117.612 24.5007 117.546 24.3 117.509 24.076C117.481 23.8427 117.472 23.6093 117.481 23.376C117.49 23.1427 117.49 22.9607 117.481 22.83C117.472 22.6247 117.462 22.3913 117.453 22.13C117.453 21.8593 117.425 21.6073 117.369 21.374C117.322 21.1313 117.238 20.926 117.117 20.758C116.996 20.59 116.814 20.5013 116.571 20.492C116.263 20.4733 116.025 20.4967 115.857 20.562C115.698 20.6273 115.582 20.7253 115.507 20.856C115.432 20.9773 115.386 21.1267 115.367 21.304C115.358 21.4813 115.339 21.6727 115.311 21.878L115.297 22.424V23.446C115.297 23.614 115.292 23.7913 115.283 23.978C115.283 24.1553 115.255 24.3187 115.199 24.468C115.143 24.6173 115.054 24.7433 114.933 24.846C114.821 24.9487 114.653 25 114.429 25C114.149 25 113.939 24.9113 113.799 24.734C113.668 24.5473 113.603 24.3187 113.603 24.048V15.998C113.603 15.942 113.603 15.8907 113.603 15.844C113.612 15.788 113.622 15.732 113.631 15.676C113.65 15.62 113.664 15.5687 113.673 15.522C113.682 15.466 113.696 15.4147 113.715 15.368C113.743 15.2747 113.79 15.2047 113.855 15.158C113.902 15.1113 113.948 15.074 113.995 15.046C114.042 15.018 114.093 14.9993 114.149 14.99C114.196 14.9807 114.247 14.976 114.303 14.976C114.359 14.9667 114.415 14.962 114.471 14.962C114.611 14.962 114.746 15.004 114.877 15.088C114.933 15.1253 114.984 15.1673 115.031 15.214C115.078 15.2513 115.115 15.3073 115.143 15.382C115.218 15.5593 115.255 15.7273 115.255 15.886C115.264 15.9327 115.269 16.0027 115.269 16.096C115.278 16.18 115.283 16.2687 115.283 16.362C115.283 16.4553 115.283 16.5487 115.283 16.642C115.292 16.726 115.297 16.7913 115.297 16.838V16.908C115.306 17.2067 115.311 17.51 115.311 17.818C115.311 18.126 115.311 18.4387 115.311 18.756V18.994C115.703 18.8633 116.114 18.8027 116.543 18.812C116.972 18.812 117.355 18.896 117.691 19.064C118.036 19.2413 118.298 19.442 118.475 19.666C118.662 19.89 118.797 20.1373 118.881 20.408C118.965 20.6787 119.012 20.968 119.021 21.276C119.04 21.584 119.054 21.906 119.063 22.242ZM121.831 19.106C122.111 18.966 122.405 18.868 122.713 18.812C123.021 18.7467 123.324 18.7327 123.623 18.77C123.931 18.798 124.225 18.8773 124.505 19.008C124.785 19.1293 125.046 19.3067 125.289 19.54C125.531 19.7827 125.718 20.0487 125.849 20.338C125.979 20.6273 126.073 20.9493 126.129 21.304C126.166 21.5467 126.227 21.7707 126.311 21.976C126.395 22.1813 126.483 22.3867 126.577 22.592C126.679 22.7973 126.773 23.0027 126.857 23.208C126.95 23.4133 127.025 23.628 127.081 23.852C127.127 24.0667 127.109 24.2767 127.025 24.482C126.95 24.678 126.791 24.7993 126.549 24.846C126.409 24.874 126.273 24.8647 126.143 24.818C126.021 24.762 125.909 24.6873 125.807 24.594C125.704 24.4913 125.611 24.384 125.527 24.272C125.452 24.1507 125.382 24.0387 125.317 23.936C125.102 24.216 124.869 24.4353 124.617 24.594C124.365 24.7433 124.061 24.8413 123.707 24.888C123.408 24.9253 123.123 24.9347 122.853 24.916C122.582 24.8973 122.293 24.846 121.985 24.762C121.583 24.6593 121.252 24.482 120.991 24.23C120.739 23.9687 120.543 23.67 120.403 23.334C120.272 22.9887 120.202 22.62 120.193 22.228C120.183 21.836 120.23 21.4487 120.333 21.066C120.463 20.562 120.659 20.1513 120.921 19.834C121.182 19.5167 121.485 19.274 121.831 19.106ZM122.181 20.744C122.05 20.8747 121.947 21.0287 121.873 21.206C121.798 21.3833 121.751 21.57 121.733 21.766C121.723 21.962 121.742 22.158 121.789 22.354C121.835 22.55 121.91 22.7227 122.013 22.872C122.106 23.0027 122.265 23.1147 122.489 23.208C122.713 23.292 122.946 23.3433 123.189 23.362C123.469 23.3807 123.711 23.306 123.917 23.138C124.131 22.97 124.29 22.76 124.393 22.508C124.505 22.2467 124.556 21.9713 124.547 21.682C124.537 21.3833 124.458 21.1127 124.309 20.87C124.197 20.6927 124.047 20.562 123.861 20.478C123.683 20.394 123.492 20.352 123.287 20.352C123.081 20.3427 122.876 20.3753 122.671 20.45C122.475 20.5153 122.311 20.6133 122.181 20.744ZM130.108 23.88C130.098 23.9267 130.089 23.9733 130.08 24.02C130.08 24.0573 130.08 24.0993 130.08 24.146L129.996 24.44C129.977 24.4773 129.963 24.5007 129.954 24.51L129.912 24.594C129.865 24.6967 129.781 24.7807 129.66 24.846C129.436 24.958 129.198 24.986 128.946 24.93C128.787 24.9113 128.661 24.8647 128.568 24.79C128.474 24.7247 128.409 24.6453 128.372 24.552C128.334 24.4587 128.306 24.3653 128.288 24.272C128.26 24.1787 128.246 24.0947 128.246 24.02V16.18C128.246 16.1147 128.246 16.0587 128.246 16.012C128.255 15.956 128.264 15.9047 128.274 15.858C128.283 15.7927 128.292 15.7367 128.302 15.69C128.32 15.6433 128.339 15.592 128.358 15.536C128.386 15.4427 128.437 15.368 128.512 15.312C128.624 15.228 128.731 15.1813 128.834 15.172C128.899 15.1533 128.96 15.144 129.016 15.144C129.072 15.1347 129.137 15.13 129.212 15.13C129.342 15.13 129.492 15.1673 129.66 15.242C129.79 15.3167 129.884 15.4193 129.94 15.55C130.033 15.7367 130.08 15.9093 130.08 16.068C130.089 16.1613 130.094 16.3013 130.094 16.488C130.103 16.6747 130.108 16.8147 130.108 16.908V16.964C130.126 17.2627 130.136 17.552 130.136 17.832C130.136 18.1027 130.131 18.4013 130.122 18.728C130.122 19.0453 130.117 19.3533 130.108 19.652C130.108 19.9413 130.108 20.2307 130.108 20.52V23.46C130.108 23.4973 130.108 23.5347 130.108 23.572C130.117 23.6 130.122 23.6327 130.122 23.67C130.122 23.7633 130.117 23.8333 130.108 23.88ZM133.017 19.694C133.017 19.9553 133.017 20.2493 133.017 20.576C133.027 20.9027 133.031 21.2433 133.031 21.598C133.031 21.9433 133.031 22.2887 133.031 22.634C133.031 22.97 133.027 23.2827 133.017 23.572C133.008 23.712 132.994 23.866 132.975 24.034C132.957 24.1927 132.919 24.342 132.863 24.482C132.807 24.622 132.719 24.7387 132.597 24.832C132.485 24.916 132.331 24.9533 132.135 24.944C131.846 24.9253 131.636 24.7993 131.505 24.566C131.384 24.3327 131.314 24.006 131.295 23.586C131.295 23.3713 131.291 23.124 131.281 22.844C131.281 22.564 131.277 22.2793 131.267 21.99C131.267 21.7007 131.267 21.4207 131.267 21.15C131.267 20.87 131.267 20.618 131.267 20.394C131.267 20.2633 131.263 20.1047 131.253 19.918C131.253 19.7313 131.258 19.54 131.267 19.344C131.277 19.148 131.3 18.9613 131.337 18.784C131.375 18.5973 131.435 18.4433 131.519 18.322C131.585 18.2473 131.678 18.1913 131.799 18.154C131.921 18.1073 132.047 18.084 132.177 18.084C132.317 18.084 132.448 18.1073 132.569 18.154C132.7 18.2007 132.793 18.266 132.849 18.35C132.887 18.406 132.915 18.4853 132.933 18.588C132.952 18.6907 132.966 18.8073 132.975 18.938C132.994 19.0593 133.003 19.19 133.003 19.33C133.013 19.4607 133.017 19.582 133.017 19.694ZM132.485 16.866C132.196 16.9407 131.953 16.9127 131.757 16.782C131.571 16.642 131.454 16.4367 131.407 16.166C131.37 15.97 131.384 15.7973 131.449 15.648C131.515 15.4987 131.613 15.3867 131.743 15.312C131.874 15.228 132.023 15.1907 132.191 15.2C132.359 15.2093 132.527 15.2747 132.695 15.396C132.854 15.508 132.966 15.6387 133.031 15.788C133.106 15.9373 133.129 16.082 133.101 16.222C133.083 16.362 133.022 16.4927 132.919 16.614C132.817 16.726 132.672 16.81 132.485 16.866ZM136.246 23.88C136.237 23.9267 136.228 23.9733 136.218 24.02C136.218 24.0573 136.218 24.0993 136.218 24.146L136.134 24.44C136.116 24.4773 136.102 24.5007 136.092 24.51L136.05 24.594C136.004 24.6967 135.92 24.7807 135.798 24.846C135.574 24.958 135.336 24.986 135.084 24.93C134.926 24.9113 134.8 24.8647 134.706 24.79C134.613 24.7247 134.548 24.6453 134.51 24.552C134.473 24.4587 134.445 24.3653 134.426 24.272C134.398 24.1787 134.384 24.0947 134.384 24.02V16.18C134.384 16.1147 134.384 16.0587 134.384 16.012C134.394 15.956 134.403 15.9047 134.412 15.858C134.422 15.7927 134.431 15.7367 134.44 15.69C134.459 15.6433 134.478 15.592 134.496 15.536C134.524 15.4427 134.576 15.368 134.65 15.312C134.762 15.228 134.87 15.1813 134.972 15.172C135.038 15.1533 135.098 15.144 135.154 15.144C135.21 15.1347 135.276 15.13 135.35 15.13C135.481 15.13 135.63 15.1673 135.798 15.242C135.929 15.3167 136.022 15.4193 136.078 15.55C136.172 15.7367 136.218 15.9093 136.218 16.068C136.228 16.1613 136.232 16.3013 136.232 16.488C136.242 16.6747 136.246 16.8147 136.246 16.908V16.964C136.265 17.2627 136.274 17.552 136.274 17.832C136.274 18.1027 136.27 18.4013 136.26 18.728C136.26 19.0453 136.256 19.3533 136.246 19.652C136.246 19.9413 136.246 20.2307 136.246 20.52V23.46C136.246 23.4973 136.246 23.5347 136.246 23.572C136.256 23.6 136.26 23.6327 136.26 23.67C136.26 23.7633 136.256 23.8333 136.246 23.88Z" fill="#1A1A1A"/>
<g clip-path="url(#clip1_1_1284)">
<rect width="60" height="60" rx="30" fill="#F3F4F5"/>
<path d="M34.8317 24.03C34.8437 24.09 34.8437 24.15 34.8317 24.21C34.8317 24.27 34.8137 24.336 34.7777 24.408C34.7297 24.576 34.6757 24.726 34.6157 24.858C34.5437 25.026 34.4537 25.17 34.3457 25.29C34.2977 25.362 34.2497 25.434 34.2017 25.506C34.1657 25.566 34.1297 25.626 34.0937 25.686L33.8597 25.992L31.5557 29.322L31.1417 29.844V34.632C31.1177 34.692 31.1057 34.752 31.1057 34.812C31.1057 34.872 31.0997 34.938 31.0877 35.01C31.0637 35.07 31.0457 35.13 31.0337 35.19C31.0217 35.238 31.0037 35.292 30.9797 35.352C30.9557 35.4 30.9437 35.436 30.9437 35.46C30.9317 35.484 30.9197 35.502 30.9077 35.514C30.9077 35.526 30.9017 35.544 30.8897 35.568C30.8177 35.688 30.7157 35.796 30.5837 35.892C30.3197 36.024 30.0197 36.054 29.6837 35.982C29.4917 35.958 29.3477 35.898 29.2517 35.802C29.1917 35.766 29.1437 35.724 29.1077 35.676C29.0717 35.628 29.0357 35.574 28.9997 35.514C28.9757 35.442 28.9517 35.376 28.9277 35.316C28.9037 35.256 28.8857 35.196 28.8737 35.136C28.8497 35.076 28.8377 35.022 28.8377 34.974C28.8377 34.914 28.8377 34.86 28.8377 34.812V29.898L28.4417 29.286L26.1017 25.974L25.9037 25.65C25.8317 25.542 25.7417 25.416 25.6337 25.272C25.5377 25.14 25.4537 24.996 25.3817 24.84C25.3337 24.768 25.2917 24.696 25.2557 24.624C25.2317 24.54 25.2077 24.456 25.1837 24.372C25.1477 24.252 25.1417 24.132 25.1657 24.012C25.2017 23.856 25.2737 23.724 25.3817 23.616C25.5017 23.508 25.6277 23.424 25.7597 23.364C25.9277 23.244 26.1197 23.196 26.3357 23.22C26.4677 23.22 26.5817 23.244 26.6777 23.292C26.7737 23.34 26.8697 23.394 26.9657 23.454C27.0737 23.538 27.1757 23.628 27.2717 23.724C27.3797 23.82 27.4757 23.922 27.5597 24.03C27.6557 24.15 27.7457 24.264 27.8297 24.372C27.9137 24.468 27.9977 24.582 28.0817 24.714L28.1357 24.786C28.4237 25.17 28.6937 25.542 28.9457 25.902C29.1977 26.25 29.4617 26.628 29.7377 27.036C29.7617 27.06 29.7977 27.108 29.8457 27.18C29.8937 27.252 29.9477 27.336 30.0077 27.432C30.0557 27.348 30.0977 27.276 30.1337 27.216C30.1817 27.144 30.2177 27.096 30.2417 27.072C30.5177 26.664 30.7817 26.28 31.0337 25.92C31.2857 25.56 31.5557 25.188 31.8437 24.804L31.8797 24.732C31.9757 24.624 32.0597 24.516 32.1317 24.408C32.2157 24.288 32.3057 24.168 32.4017 24.048C32.5577 23.832 32.7677 23.646 33.0317 23.49C33.2237 23.358 33.4217 23.274 33.6257 23.238C33.8537 23.214 34.0517 23.262 34.2197 23.382C34.2917 23.43 34.3577 23.472 34.4177 23.508C34.4897 23.544 34.5497 23.586 34.5977 23.634C34.6937 23.742 34.7717 23.874 34.8317 24.03Z" fill="#1A1A1A"/>
</g>
</g>
<defs>
<clipPath id="clip0_1_1284">
<rect width="187" height="60" fill="white"/>
</clipPath>
<clipPath id="clip1_1_1284">
<rect width="60" height="60" fill="white"/>
</clipPath>
</defs>
</svg>
