<?xml version="1.0" encoding="UTF-8"?>
<!DOCTYPE svg PUBLIC "-//W3C//DTD SVG 1.1//EN" "http://www.w3.org/Graphics/SVG/1.1/DTD/svg11.dtd">
<svg xmlns="http://www.w3.org/2000/svg" version="1.1" width="1200px" height="1200px" style="shape-rendering:geometricPrecision; text-rendering:geometricPrecision; image-rendering:optimizeQuality; fill-rule:evenodd; clip-rule:evenodd" xmlns:xlink="http://www.w3.org/1999/xlink">
<g><path style="opacity:0.848" fill="#f0b943" d="M 1124.5,280.5 C 1130.39,287.338 1133.23,295.338 1133,304.5C 1131.56,306.046 1129.73,306.879 1127.5,307C 1131.19,313.093 1129.85,317.593 1123.5,320.5C 1125.5,324.727 1124.5,327.893 1120.5,330C 1121.79,332.466 1121.79,334.966 1120.5,337.5C 1117.98,339.464 1115.32,340.13 1112.5,339.5C 1115.15,344.368 1115.65,349.368 1114,354.5C 1112.64,355.38 1111.14,355.714 1109.5,355.5C 1110.33,358.469 1110.5,361.469 1110,364.5C 1109.1,365.701 1107.93,366.535 1106.5,367C 1108.57,374.93 1105.57,377.93 1097.5,376C 1102.16,383.899 1101.5,391.232 1095.5,398C 1094.17,398.333 1092.83,398.667 1091.5,399C 1093.35,402.631 1093.85,406.464 1093,410.5C 1090.76,412.787 1088.26,412.953 1085.5,411C 1081.54,408.766 1078.04,405.933 1075,402.5C 1078.04,408.575 1082.37,413.908 1088,418.5C 1088.82,421.738 1087.65,423.238 1084.5,423C 1079.48,419.995 1074.48,417.328 1069.5,415C 1073.97,420.468 1078.8,425.635 1084,430.5C 1084.94,433.23 1083.94,434.563 1081,434.5C 1079.37,434.375 1077.87,433.875 1076.5,433C 1071.57,428.065 1066.07,423.899 1060,420.5C 1059.29,418.633 1059.79,417.133 1061.5,416C 1063.21,415.805 1064.87,415.805 1066.5,416C 1063.9,413.016 1062.9,409.516 1063.5,405.5C 1066.21,405.75 1068.88,405.917 1071.5,406C 1068.51,402.564 1067.51,398.731 1068.5,394.5C 1071.82,393.054 1074.82,393.554 1077.5,396C 1079.87,398.706 1082.54,401.039 1085.5,403C 1086.6,403.432 1087.27,402.932 1087.5,401.5C 1083.49,394.805 1079.99,387.805 1077,380.5C 1075.85,376.171 1076.68,372.338 1079.5,369C 1086.05,369.207 1089.89,372.707 1091,379.5C 1091.5,383.241 1091.5,386.908 1091,390.5C 1094.91,391.927 1096.41,390.427 1095.5,386C 1095.43,383.409 1094.93,380.909 1094,378.5C 1090.63,372.48 1087.3,366.48 1084,360.5C 1083.2,357.289 1083.7,354.289 1085.5,351.5C 1081.13,346.964 1076.3,342.964 1071,339.5C 1070.5,337.527 1070.34,335.527 1070.5,333.5C 1072.65,333.372 1074.65,333.872 1076.5,335C 1085.33,342.5 1094.17,350 1103,357.5C 1101.25,350.377 1097.25,344.71 1091,340.5C 1089.61,334.88 1091.45,333.38 1096.5,336C 1100.17,339.667 1103.83,343.333 1107.5,347C 1108.33,347.688 1109,347.521 1109.5,346.5C 1106.51,338.333 1102.68,330.667 1098,323.5C 1097.2,320.289 1097.7,317.289 1099.5,314.5C 1095.13,309.964 1090.3,305.964 1085,302.5C 1084.5,300.527 1084.34,298.527 1084.5,296.5C 1086.65,296.372 1088.65,296.872 1090.5,298C 1099.33,305.5 1108.17,313 1117,320.5C 1112.79,313.534 1109.29,306.034 1106.5,298C 1108.64,294.502 1109.81,290.668 1110,286.5C 1110.41,286.043 1110.91,285.709 1111.5,285.5C 1115.35,288.519 1118.69,292.019 1121.5,296C 1123.37,297.602 1125.37,298.602 1127.5,299C 1127.21,293.978 1125.55,289.144 1122.5,284.5C 1123.18,283.14 1123.85,281.807 1124.5,280.5 Z M 1112.5,297.5 C 1118.06,300.564 1122.06,305.064 1124.5,311C 1121.36,310.912 1118.86,309.412 1117,306.5C 1114.43,304.024 1112.93,301.024 1112.5,297.5 Z M 1103.5,319.5 C 1107.67,321.158 1111.17,323.825 1114,327.5C 1115.19,329.044 1115.52,330.711 1115,332.5C 1109.15,329.828 1105.32,325.495 1103.5,319.5 Z M 1089.5,356.5 C 1093.67,358.158 1097.17,360.825 1100,364.5C 1101.19,366.044 1101.52,367.711 1101,369.5C 1095.15,366.828 1091.32,362.495 1089.5,356.5 Z M 1081.5,374.5 C 1084.87,377.764 1086.37,381.764 1086,386.5C 1083.22,382.985 1081.72,378.985 1081.5,374.5 Z"/></g>
<g><path style="opacity:0.981" fill="#f0b943" d="M 69.5,294.5 C 71.7925,294.244 73.9592,294.577 76,295.5C 76.4998,304.494 76.6664,313.494 76.5,322.5C 85.5062,322.334 94.5062,322.5 103.5,323C 104.833,325.333 104.833,327.667 103.5,330C 94.5062,330.5 85.5062,330.666 76.5,330.5C 76.6664,339.506 76.4998,348.506 76,357.5C 73.6667,358.833 71.3333,358.833 69,357.5C 68.5002,348.506 68.3336,339.506 68.5,330.5C 59.4938,330.666 50.4938,330.5 41.5,330C 40.1667,327.667 40.1667,325.333 41.5,323C 50.4938,322.5 59.4938,322.334 68.5,322.5C 68.1945,313.083 68.5279,303.75 69.5,294.5 Z"/></g>
<g><path style="opacity:0.914" fill="#f0b943" d="M 151.5,294.5 C 172.083,292.119 185.416,300.786 191.5,320.5C 266.164,321.333 340.831,321.833 415.5,322C 489.335,322.383 554.669,345.717 611.5,392C 646.093,422.999 671.926,460.166 689,503.5C 716.59,575.935 743.59,648.602 770,721.5C 799.939,637.014 830.273,552.681 861,468.5C 861.5,468 862,467.5 862.5,467C 911.833,466.333 961.167,466.333 1010.5,467C 1011.11,468.231 1011.44,469.564 1011.5,471C 951.597,623.134 890.597,774.801 828.5,926C 786.167,926.667 743.833,926.667 701.5,926C 686.122,887.363 670.455,848.863 654.5,810.5C 599.668,880.928 527.335,919.428 437.5,926C 343.833,926.667 250.167,926.667 156.5,926C 155.668,829.57 155.168,733.07 155,636.5C 132.505,630.194 123.838,615.528 129,592.5C 138.047,574.729 152.214,568.562 171.5,574C 187.332,581.493 193.832,593.993 191,611.5C 187.107,625.395 178.107,633.728 164,636.5C 163.5,730.499 163.333,824.499 163.5,918.5C 249.834,918.667 336.167,918.5 422.5,918C 520.401,914.395 598.068,873.562 655.5,795.5C 658.429,795.928 660.263,797.595 661,800.5C 676.5,839.5 692,878.5 707.5,917.5C 745.829,918.667 784.162,918.833 822.5,918C 881.963,770.905 941.296,623.738 1000.5,476.5C 956.172,475.5 911.838,475.167 867.5,475.5C 841.911,548.018 815.744,620.351 789,692.5C 783.597,708.044 778.597,723.71 774,739.5C 771.718,743.041 769.051,743.374 766,740.5C 759.131,717.227 751.464,694.227 743,671.5C 722.274,617.989 701.941,564.322 682,510.5C 640.768,409.301 565.934,350.468 457.5,334C 446.214,332.471 434.88,331.471 423.5,331C 346.167,330.5 268.834,330.333 191.5,330.5C 186.577,350.972 173.577,360.139 152.5,358C 133.296,351.77 125.129,338.603 128,318.5C 131.358,305.977 139.191,297.977 151.5,294.5 Z M 156.5,302.5 C 178.136,304.961 185.969,316.628 180,337.5C 171.374,350.047 160.207,352.88 146.5,346C 131.782,332.236 132.115,318.903 147.5,306C 150.571,304.704 153.571,303.538 156.5,302.5 Z M 155.5,580.5 C 175.124,580.958 183.957,590.958 182,610.5C 177.112,623.031 167.945,628.531 154.5,627C 138.76,621.354 133.26,610.521 138,594.5C 141.915,587.309 147.749,582.643 155.5,580.5 Z"/></g>
<g><path style="opacity:0.779" fill="#f0b943" d="M 1078.5,324.5 C 1082.05,325.043 1084.38,327.043 1085.5,330.5C 1082.95,333.893 1080.12,333.893 1077,330.5C 1076.26,328.126 1076.76,326.126 1078.5,324.5 Z"/></g>
<g><path style="opacity:0.937" fill="#f0b943" d="M 728.5,350.5 C 751.167,350.5 773.833,350.5 796.5,350.5C 796.5,356.5 796.5,362.5 796.5,368.5C 788.5,368.5 780.5,368.5 772.5,368.5C 772.5,389.5 772.5,410.5 772.5,431.5C 765.833,431.5 759.167,431.5 752.5,431.5C 752.5,410.5 752.5,389.5 752.5,368.5C 744.5,368.5 736.5,368.5 728.5,368.5C 728.5,362.5 728.5,356.5 728.5,350.5 Z"/></g>
<g><path style="opacity:0.929" fill="#f0b943" d="M 963.5,350.5 C 969.833,350.5 976.167,350.5 982.5,350.5C 967.289,382.589 951.789,414.589 936,446.5C 929.582,447.643 923.082,447.81 916.5,447C 932.584,415 948.251,382.833 963.5,350.5 Z"/></g>
<g><path style="opacity:0.931" fill="#f0b943" d="M 819.5,368.5 C 842.916,369.613 853.583,381.946 851.5,405.5C 837.817,405.167 824.15,405.501 810.5,406.5C 813.866,412.856 819.2,416.189 826.5,416.5C 831.695,415.94 836.195,413.94 840,410.5C 843.531,414.397 846.697,418.564 849.5,423C 838.988,431.959 826.988,434.626 813.5,431C 796.495,424.846 789.329,412.679 792,394.5C 795.584,379.745 804.751,371.078 819.5,368.5 Z M 820.5,384.5 C 827.359,384.046 831.692,387.046 833.5,393.5C 825.804,393.831 818.138,393.497 810.5,392.5C 812.417,387.902 815.751,385.235 820.5,384.5 Z"/></g>
<g><path style="opacity:0.94" fill="#f0b943" d="M 880.5,369.5 C 893.231,367.139 904.398,370.139 914,378.5C 914.52,380.289 914.187,381.956 913,383.5C 910.158,386.542 907.324,389.542 904.5,392.5C 898.334,385.312 891.001,383.812 882.5,388C 876.947,392.618 875.114,398.451 877,405.5C 884.428,418.143 893.595,419.477 904.5,409.5C 907.889,412.6 911.055,415.933 914,419.5C 913.912,422.642 912.412,425.142 909.5,427C 896.426,434.241 883.426,434.241 870.5,427C 858.688,416.547 855.188,403.714 860,388.5C 863.866,378.795 870.699,372.461 880.5,369.5 Z"/></g>
<g><path style="opacity:0.931" fill="#f0b943" d="M 714.5,370.5 C 718.548,375.246 720.881,380.579 721.5,386.5C 711.516,391.158 701.849,396.324 692.5,402C 702.254,407.294 712.088,412.461 722,417.5C 720.595,422.977 718.095,427.977 714.5,432.5C 699.871,424.366 685.371,416.033 671,407.5C 670.204,403.245 670.371,399.079 671.5,395C 686.221,387.312 700.555,379.145 714.5,370.5 Z"/></g>
<g><path style="opacity:0.93" fill="#f0b943" d="M 994.5,370.5 C 1009.27,378.389 1023.94,386.556 1038.5,395C 1039.8,399.45 1039.8,403.95 1038.5,408.5C 1024.4,416.634 1010.23,424.634 996,432.5C 992.927,428.029 990.094,423.362 987.5,418.5C 997.339,412.746 1007.34,407.246 1017.5,402C 1007.5,396.333 997.5,390.667 987.5,385C 990.245,380.343 992.579,375.51 994.5,370.5 Z"/></g>
<g><path style="opacity:0.842" fill="#f0b943" d="M 1064.5,435.5 C 1068.89,440.278 1071.72,445.945 1073,452.5C 1073.67,455.167 1073.67,457.833 1073,460.5C 1071.64,461.38 1070.14,461.714 1068.5,461.5C 1069.38,464.799 1069.54,468.132 1069,471.5C 1068.01,472.939 1066.68,473.939 1065,474.5C 1064.11,473.289 1063.27,473.289 1062.5,474.5C 1064.39,477.962 1064.89,481.628 1064,485.5C 1063.1,487.368 1061.6,488.368 1059.5,488.5C 1057.06,487.964 1054.72,487.131 1052.5,486C 1045.83,480.667 1039.17,475.333 1032.5,470C 1029.71,467.94 1026.71,466.44 1023.5,465.5C 1023.33,460.506 1025.66,458.672 1030.5,460C 1038.17,466.333 1045.83,472.667 1053.5,479C 1055.45,481.071 1057.79,481.738 1060.5,481C 1056.46,473.087 1052.29,465.254 1048,457.5C 1047.33,454.5 1047.33,451.5 1048,448.5C 1049.16,446.715 1049.83,444.715 1050,442.5C 1050.73,440.842 1051.89,440.342 1053.5,441C 1057.48,446.819 1062.48,451.319 1068.5,454.5C 1067.7,449.94 1066.2,445.606 1064,441.5C 1063.32,439.402 1063.49,437.402 1064.5,435.5 Z M 1052.5,452.5 C 1057.84,455.512 1061.84,459.846 1064.5,465.5C 1061.88,466.116 1059.71,465.116 1058,462.5C 1055.38,459.594 1053.55,456.261 1052.5,452.5 Z"/></g>
<g><path style="opacity:0.893" fill="#f0b943" d="M 304.5,449.5 C 342.168,449.333 379.835,449.5 417.5,450C 479.15,454.554 522.983,484.721 549,540.5C 570.999,596.497 570.999,652.497 549,708.5C 525.661,760.774 485.494,790.608 428.5,798C 387.185,799.595 345.852,799.928 304.5,799C 303.584,798.626 302.75,798.126 302,797.5C 301.333,682.167 301.333,566.833 302,451.5C 302.995,450.934 303.828,450.267 304.5,449.5 Z M 310.5,458.5 C 347.168,458.333 383.835,458.5 420.5,459C 490.972,467.465 534.472,506.299 551,575.5C 560.68,620.326 557.014,663.993 540,706.5C 518.056,753.758 481.223,781.258 429.5,789C 389.857,790.439 350.19,790.939 310.5,790.5C 310.5,679.833 310.5,569.167 310.5,458.5 Z"/></g>
<g><path style="opacity:0.849" fill="#f0b943" d="M 1042.5,492.5 C 1046.89,497.278 1049.72,502.945 1051,509.5C 1051.67,512.167 1051.67,514.833 1051,517.5C 1049.64,518.38 1048.14,518.714 1046.5,518.5C 1047.65,522.186 1047.65,525.853 1046.5,529.5C 1044.07,531.657 1041.4,531.824 1038.5,530C 1025.29,521.522 1022.45,510.688 1030,497.5C 1034.43,501.934 1038.93,506.434 1043.5,511C 1044.45,511.483 1045.45,511.649 1046.5,511.5C 1045.7,506.94 1044.2,502.606 1042,498.5C 1041.32,496.402 1041.49,494.402 1042.5,492.5 Z M 1030.5,509.5 C 1035.84,512.512 1039.84,516.846 1042.5,522.5C 1039.88,523.116 1037.71,522.116 1036,519.5C 1033.38,516.594 1031.55,513.261 1030.5,509.5 Z"/></g>
<g><path style="opacity:0.845" fill="#f0b943" d="M 997.5,532.5 C 1000.56,532.144 1003.23,532.977 1005.5,535C 1013.54,542.433 1022.04,549.267 1031,555.5C 1031.67,554.167 1031.67,552.833 1031,551.5C 1028.83,547.167 1026.67,542.833 1024.5,538.5C 1024.87,537.098 1025.7,536.098 1027,535.5C 1033.08,541.992 1036.08,549.659 1036,558.5C 1035.17,559.333 1034.33,560.167 1033.5,561C 1031,561.157 1028.67,561.324 1026.5,561.5C 1028.9,567.792 1029.06,574.125 1027,580.5C 1024.87,583.458 1022.21,584.124 1019,582.5C 1017.83,585 1016,586.833 1013.5,588C 1018.59,593.105 1019.59,598.772 1016.5,605C 1014.53,605.495 1012.53,605.662 1010.5,605.5C 1012.15,610.04 1012.65,614.707 1012,619.5C 1010.56,621.155 1008.72,621.822 1006.5,621.5C 1008.16,626.525 1007.83,631.359 1005.5,636C 1002.58,636.552 999.914,635.885 997.5,634C 985.695,623.938 984.528,625.438 994,638.5C 996.333,640.833 998.667,643.167 1001,645.5C 1001.56,650.936 999.397,652.436 994.5,650C 989.536,644.868 983.869,640.701 977.5,637.5C 976.369,635.926 976.202,634.259 977,632.5C 979.333,631.68 981.5,631.347 983.5,631.5C 980.864,626.634 980.864,621.801 983.5,617C 986.017,616.743 988.35,617.41 990.5,619C 1003.07,632.151 1004.91,630.317 996,613.5C 993.984,611.316 991.817,609.316 989.5,607.5C 988.359,605.579 988.192,603.579 989,601.5C 990.049,600.483 991.216,600.316 992.5,601C 997.301,604.799 1001.8,608.966 1006,613.5C 1005.44,605.866 1001.94,600.032 995.5,596C 994.207,595.51 992.873,595.343 991.5,595.5C 991.5,593.833 991.5,592.167 991.5,590.5C 994.11,589.498 996.776,589.665 999.5,591C 1003.67,593.833 1007.83,596.667 1012,599.5C 1009.3,592.274 1004.46,586.608 997.5,582.5C 995.588,576.295 997.588,574.462 1003.5,577C 1005.52,580.534 1008.52,582.034 1012.5,581.5C 1010.37,576.563 1008.2,571.563 1006,566.5C 1005.33,563.167 1005.33,559.833 1006,556.5C 1009.25,552.633 1012.58,552.633 1016,556.5C 1018.15,559.126 1019.48,562.126 1020,565.5C 1020.13,569.111 1020.3,572.611 1020.5,576C 1021.78,576.684 1022.95,576.517 1024,575.5C 1024.62,563.242 1019.79,553.742 1009.5,547C 1004.94,543.44 1000.1,540.273 995,537.5C 994.751,535.332 995.584,533.665 997.5,532.5 Z M 1009.5,558.5 C 1013.15,561.811 1014.82,565.811 1014.5,570.5C 1011.73,566.957 1010.06,562.957 1009.5,558.5 Z"/></g>
<g><path style="opacity:0.78" fill="#f0b943" d="M 975.5,590.5 C 982.775,591.374 984.108,594.374 979.5,599.5C 974.878,597.97 973.545,594.97 975.5,590.5 Z"/></g>
<g><path style="opacity:0.841" fill="#f0b943" d="M 980.5,653.5 C 983.176,655.026 985.009,657.36 986,660.5C 989.451,667.801 989.785,675.134 987,682.5C 985.333,684.628 983.166,685.961 980.5,686.5C 982.195,689.67 982.695,693.004 982,696.5C 981.097,697.701 979.931,698.535 978.5,699C 980.577,707.254 977.577,709.92 969.5,707C 958.458,702.525 954.458,694.692 957.5,683.5C 953.129,678.964 948.295,674.964 943,671.5C 942.505,669.527 942.338,667.527 942.5,665.5C 944.655,665.372 946.655,665.872 948.5,667C 957.333,674.5 966.167,682 975,689.5C 972.237,683.327 969.57,677.327 967,671.5C 965.675,667.572 965.342,663.572 966,659.5C 969.389,654.393 973.056,654.393 977,659.5C 980.35,664.824 981.183,670.491 979.5,676.5C 980.348,678.283 981.681,678.783 983.5,678C 985.297,671.358 984.13,665.191 980,659.5C 979.322,657.402 979.489,655.402 980.5,653.5 Z M 970.5,661.5 C 973.867,664.764 975.367,668.764 975,673.5C 972.217,669.985 970.717,665.985 970.5,661.5 Z M 961.5,688.5 C 965.672,690.158 969.172,692.825 972,696.5C 973.187,698.044 973.52,699.711 973,701.5C 967.155,698.828 963.321,694.495 961.5,688.5 Z"/></g>
<g><path style="opacity:0.845" fill="#f0b943" d="M 943.5,715.5 C 944.552,715.351 945.552,715.517 946.5,716C 947.928,718.185 949.595,720.185 951.5,722C 957.544,722.29 962.71,724.457 967,728.5C 968.904,733.144 968.07,737.311 964.5,741C 962.159,742.4 959.826,742.9 957.5,742.5C 960.266,748.936 960.1,755.269 957,761.5C 955.22,762.594 953.386,763.594 951.5,764.5C 953.94,769.379 953.607,773.879 950.5,778C 947.581,778.552 944.914,777.885 942.5,776C 939.428,773.049 936.261,770.216 933,767.5C 933.086,770.702 934.086,773.702 936,776.5C 939.1,780.356 942.433,784.023 946,787.5C 947.583,792.1 946.083,793.934 941.5,793C 939.695,792.028 938.028,790.861 936.5,789.5C 934.923,793.816 935.423,797.816 938,801.5C 940.902,809.804 938.069,814.471 929.5,815.5C 932.008,820.459 932.008,825.292 929.5,830C 927.343,830.078 925.343,830.245 923.5,830.5C 925.32,835.362 925.82,840.362 925,845.5C 923.62,848.883 921.12,850.716 917.5,851C 920.955,857.76 918.955,862.093 911.5,864C 916.454,870.693 915.12,875.527 907.5,878.5C 909.731,882.122 909.898,885.788 908,889.5C 904.944,892.006 901.777,892.006 898.5,889.5C 897.645,891.608 896.978,893.774 896.5,896C 898.253,899.339 899.586,902.839 900.5,906.5C 898.345,914.573 893.512,916.573 886,912.5C 885.333,915.5 885.333,918.5 886,921.5C 895.242,928.334 898.242,937.334 895,948.5C 891.333,953.833 887.667,953.833 884,948.5C 882.122,941.977 881.122,935.31 881,928.5C 876.425,933.746 871.258,938.246 865.5,942C 856.631,943.479 851.797,939.645 851,930.5C 849.94,921.021 850.607,911.688 853,902.5C 854.224,899.204 856.058,896.371 858.5,894C 865.382,892.535 869.216,895.369 870,902.5C 871.223,908.379 870.389,913.879 867.5,919C 866.207,919.49 864.873,919.657 863.5,919.5C 865.297,912.128 864.464,905.128 861,898.5C 858.477,902.069 857.144,906.069 857,910.5C 856.333,915.833 856.333,921.167 857,926.5C 857.151,932.329 859.984,934.829 865.5,934C 870.377,929.454 875.544,925.287 881,921.5C 881.04,916.843 880.706,912.176 880,907.5C 876.408,902.217 875.408,896.55 877,890.5C 878.438,889.282 880.105,888.615 882,888.5C 885.76,889.142 889.26,890.476 892.5,892.5C 893.334,888.898 892.334,885.731 889.5,883C 883.833,878.667 878.167,874.333 872.5,870C 870.975,868.991 869.308,868.491 867.5,868.5C 867.376,863.453 869.709,861.62 874.5,863C 884.049,870.884 893.882,878.384 904,885.5C 902.898,880.273 900.898,875.273 898,870.5C 894.51,868.009 891.343,865.175 888.5,862C 889.967,859.814 891.967,859.148 894.5,860C 898.35,862.761 902.017,865.761 905.5,869C 906.635,869.749 907.635,869.583 908.5,868.5C 904.223,860.932 899.223,853.932 893.5,847.5C 894.096,844.754 895.763,843.92 898.5,845C 902.466,847.964 906.133,851.297 909.5,855C 910.5,855.5 911.5,856 912.5,856.5C 912.833,855.833 913.167,855.167 913.5,854.5C 909.904,847.728 906.071,841.061 902,834.5C 901.333,830.833 901.333,827.167 902,823.5C 907.258,819.021 911.258,820.021 914,826.5C 914.884,828.641 914.384,830.307 912.5,831.5C 911.059,830.135 909.726,828.635 908.5,827C 907.365,826.251 906.365,826.417 905.5,827.5C 907.686,834.676 912.019,840.009 918.5,843.5C 919.974,842.564 920.974,841.23 921.5,839.5C 920.342,829.507 915.842,821.507 908,815.5C 907.257,813.559 907.424,811.726 908.5,810C 909.5,809.333 910.5,809.333 911.5,810C 916.301,813.799 920.801,817.966 925,822.5C 925.484,820.087 925.15,817.754 924,815.5C 921.73,810.902 919.063,806.569 916,802.5C 913.16,788.491 917.993,785.158 930.5,792.5C 931.673,790.021 931.673,787.521 930.5,785C 927.244,782.552 924.244,779.885 921.5,777C 921.735,776.127 922.069,775.293 922.5,774.5C 924.688,773.759 926.688,773.426 928.5,773.5C 926.285,768.859 926.118,764.193 928,759.5C 930.147,758.524 932.314,758.691 934.5,760C 938.667,763.5 942.833,767 947,770.5C 944.808,762.773 941.475,755.44 937,748.5C 935.105,744.148 935.105,739.815 937,735.5C 939.587,732.966 942.253,732.966 945,735.5C 950.3,741.093 951.8,747.593 949.5,755C 951.997,757.17 953.83,756.67 955,753.5C 954.989,749.775 954.323,746.108 953,742.5C 949.922,736.009 946.588,729.675 943,723.5C 942.278,720.739 942.445,718.073 943.5,715.5 Z M 951.5,729.5 C 955.073,727.8 958.239,728.467 961,731.5C 961.667,732.5 961.667,733.5 961,734.5C 958.674,735.813 957.341,737.813 957,740.5C 955.121,736.741 953.287,733.075 951.5,729.5 Z M 940.5,739.5 C 944.043,742.287 945.543,745.954 945,750.5C 942.425,747.274 940.925,743.607 940.5,739.5 Z M 920.5,794.5 C 923.516,794.841 926.182,796.007 928.5,798C 924.914,800.381 921.914,799.881 919.5,796.5C 919.863,795.817 920.196,795.15 920.5,794.5 Z M 929.5,802.5 C 934.147,803.792 934.481,805.792 930.5,808.5C 923.42,806.563 923.086,804.563 929.5,802.5 Z M 881.5,894.5 C 884.516,894.841 887.182,896.007 889.5,898C 885.81,900.327 882.81,899.66 880.5,896C 881.056,895.617 881.389,895.117 881.5,894.5 Z M 891.5,902.5 C 895.413,904.37 895.413,906.37 891.5,908.5C 889.336,907.586 887.336,906.419 885.5,905C 887.723,904.434 889.723,903.6 891.5,902.5 Z M 885.5,928.5 C 888.27,930.366 889.77,933.032 890,936.5C 890.89,939.706 890.557,942.706 889,945.5C 886.863,940.049 885.697,934.382 885.5,928.5 Z"/></g>
<g><path style="opacity:0.81" fill="#f0b943" d="M 895.5,799.5 C 901.927,801.035 902.927,804.035 898.5,808.5C 893.349,806.687 892.349,803.687 895.5,799.5 Z"/></g>
</svg>
