<?xml version="1.0" encoding="utf-8"?>
<!-- Generator: Adobe Illustrator 24.0.2, SVG Export Plug-In . SVG Version: 6.00 Build 0)  -->
<svg version="1.1" id="Capa_1" xmlns="http://www.w3.org/2000/svg" xmlns:xlink="http://www.w3.org/1999/xlink" x="0px" y="0px"
	 viewBox="0 0 80 80" style="enable-background:new 0 0 80 80;" xml:space="preserve">
<style type="text/css">
	.st0{fill:#FFFFFF;}
	.st1{fill:#63B8FC;}
</style>
<path class="st0" d="M55,0H25C11.2,0,0,11.2,0,25v30c0,13.8,11.2,25,25,25h30c13.8,0,25-11.2,25-25V25C80,11.2,68.8,0,55,0z"/>
<path class="st1" d="M36.4,24.8L23.1,52.6c-0.6,1.2-0.3,2.5,0.6,3.4c1,1,2.4,1.4,3.9,1l11.2-2.5V42.5c0-0.6,0.5-1,1.2-1
	c0.6,0,1.2,0.5,1.2,1v12.1l11.2,2.5c1.4,0.3,2.9-0.1,3.9-1c1-1,1.2-2.3,0.6-3.4L43.6,24.8c-0.6-1.3-2-2-3.6-2S37.1,23.6,36.4,24.8z"
	/>
</svg>
